<?xml version="1.0" standalone="no"?> <!DOCTYPE svg PUBLIC "-//W3C//DTD SVG 1.0//EN" "http://www.w3.org/TR/2001/REC-SVG-20010904/DTD/svg10.dtd" > <svg xmlns="http://www.w3.org/2000/svg" width="100%" height="100%">
<defs >
<font id="16020_futuram" horiz-adv-x="938" ><font-face
    font-family="Futura"
    units-per-em="2048"
    panose-1="2 11 6 2 2 2 4 2 3 3"
    ascent="1972"
    descent="-483"
    alphabetic="0" />
<missing-glyph horiz-adv-x="1229" d="M102 -362V1444H1126V-362H102ZM217 -248H1012V1329H217V-248Z" />
<glyph unicode=" " glyph-name="space" horiz-adv-x="618" />
<glyph unicode="!" glyph-name="exclam" horiz-adv-x="674" d="M223 1497H451V336H223V1497ZM205 92Q205 146 243 184T336 223Q391 223 429 185T467 92Q467 38 429 0T336 -39Q281 -39 243 -1T205 92Z" />
<glyph unicode="&quot;" glyph-name="quotedbl" horiz-adv-x="643" d="M395 1436H559V879H395V1436ZM86 1436H250V879H86V1436Z" />
<glyph unicode="#" glyph-name="numbersign" horiz-adv-x="1575" d="M709 852L618 598H874L965 852H709ZM735 1460H926L772 1024H1022L1178 1460H1368L1214 1024H1505L1446 852H1153L1063 600H1372L1311 428H1004L848 -6H657L813 428H561L403 -6H213L369 428H70L131
600H428L518 852H203L264 1024H580L735 1460Z" />
<glyph unicode="$" glyph-name="dollar" horiz-adv-x="1237" d="M137 317L326 401Q350 315 410 268T567 209V666Q362 750 269 850T176 1087Q176 1246 280 1349T567 1475V1587H672V1473Q815 1460 907 1402T1038 1241L854 1149Q820 1202 776 1232T672 1274V872Q917
757 1001 663T1085 430Q1085 249 978 138T672 2V-168H567V-2Q389 10 281 90T137 317ZM567 1268Q494 1246 461 1207T428 1102Q428 1040 461 994T567 909V1268ZM672 215Q754 236 797 287T840 416Q840 482 800 531T672 623V215Z" />
<glyph unicode="%" glyph-name="percent" horiz-adv-x="1622" d="M1237 80Q1312 80 1349 147T1386 348Q1386 477 1349 545T1241 614Q1167 614 1130 547T1092 346Q1092 218 1129 149T1237 80ZM913 348Q913 530 1000 631T1241 733Q1396 733 1481 633T1567 348Q1567
166 1480 64T1239 -39Q1085 -39 999 63T913 348ZM57 1094Q57 1275 144 1377T385 1479Q540 1479 625 1379T711 1094Q711 911 625 810T385 709Q230 709 144 810T57 1094ZM383 825Q457 825 493 892T530 1094Q530 1224 493 1293T387 1362Q313 1362 276 1294T238 1092Q238
963 275 894T383 825ZM455 -39H317L1171 1479H1309L455 -39Z" />
<glyph unicode="&amp;" glyph-name="ampersand" horiz-adv-x="1374" d="M571 934L625 965Q681 998 709 1041T737 1139Q737 1201 699 1240T600 1280Q533 1280 492 1240T451 1137Q451 1106 462 1077T498 1022L571 934ZM834 295L514 664L477 639Q372 571 331 515T289
389Q289 292 357 225T526 158Q601 158 677 192T834 295ZM1087 0L969 139Q865 50 756 8T516 -35Q314 -35 188 82T61 383Q61 508 139 613T387 825L328 889Q279 942 253 1005T227 1133Q227 1277 332 1369T604 1462Q769 1462 866 1379T963 1153Q963 1046 895 958T678
782L983 428Q1027 472 1073 528T1171 657L1311 508Q1271 444 1222 387T1116 279L1362 0H1087Z" />
<glyph unicode="&apos;" glyph-name="quotesingle" horiz-adv-x="334" d="M86 1436H250V879H86V1436Z" />
<glyph unicode="(" glyph-name="parenleft" horiz-adv-x="621" d="M406 -446Q287 -226 228 20T168 539Q168 826 227 1072T406 1532L569 1483Q462 1271 410 1041T358 541Q358 259 409 31T569 -393L406 -446Z" />
<glyph unicode=")" glyph-name="parenright" horiz-adv-x="621" d="M207 -446L45 -393Q153 -197 204 31T256 541Q256 810 205 1040T45 1483L207 1532Q327 1318 385 1072T444 539Q444 266 385 20T207 -446Z" />
<glyph unicode="*" glyph-name="asterisk" horiz-adv-x="901" d="M178 868L106 989L332 1104L106 1237L178 1360L389 1225L377 1464H522L508 1223L723 1360L795 1237L563 1110L795 989L719 868L508 1008L522 762H377L387 1006L178 868Z" />
<glyph unicode="+" glyph-name="plus" horiz-adv-x="1706" d="M768 1221H938V694H1452V528H938V0H768V528H254V694H768V1221Z" />
<glyph unicode="," glyph-name="comma" horiz-adv-x="618" d="M309 248L504 176L244 -360L115 -309L309 248Z" />
<glyph unicode="-" glyph-name="hyphen" horiz-adv-x="829" d="M147 571H682V371H147V571Z" />
<glyph unicode="." glyph-name="period" horiz-adv-x="618" d="M178 111Q178 166 216 205T309 244Q364 244 402 205T440 111Q440 57 402 20T309 -18Q254 -18 216 19T178 111Z" />
<glyph unicode="/" glyph-name="slash" horiz-adv-x="887" d="M717 1497H887L170 -190H0L717 1497Z" />
<glyph unicode="0" glyph-name="zero" horiz-adv-x="1237" d="M1145 705Q1145 356 1005 159T618 -39Q369 -39 231 160T92 721Q92 1079 232 1279T621 1479Q873 1479 1009 1279T1145 705ZM614 166Q760 166 833 305T907 723Q907 993 835 1134T623 1276Q478 1276 404
1135T330 719Q330 452 403 309T614 166Z" />
<glyph unicode="1" glyph-name="one" horiz-adv-x="1237" d="M541 0V1262H238L330 1450H758V0H541Z" />
<glyph unicode="2" glyph-name="two" horiz-adv-x="1237" d="M1024 190V0H43L590 655Q692 778 739 871T786 1040Q786 1149 722 1211T545 1274Q445 1274 380 1212T307 1047H78Q78 1244 210 1361T565 1479Q777 1479 899 1370T1022 1073Q1022 939 952 803T653 406L467
190H1024Z" />
<glyph unicode="3" glyph-name="three" horiz-adv-x="1237" d="M94 391H322V379Q322 278 391 218T578 158Q711 158 783 224T856 416Q856 547 782 613T559 680Q552 680 537 679T514 678V870Q521 870 535 869T557 868Q687 868 753 922T819 1083Q819 1177 760 1232T600
1288Q493 1288 433 1237T369 1092H154Q164 1279 281 1379T606 1479Q807 1479 924 1374T1042 1090Q1042 955 976 869T791 764Q930 739 1002 642T1075 385Q1075 190 939 76T569 -39Q358 -39 229 77T94 391Z" />
<glyph unicode="4" glyph-name="four" horiz-adv-x="1237" d="M735 989L362 463H729V844Q729 874 730 911T735 989ZM729 0V297H27L879 1479H946V463H1124V297H946V0H729Z" />
<glyph unicode="5" glyph-name="five" horiz-adv-x="1237" d="M236 350Q287 256 367 206T545 156Q690 156 780 248T870 492Q870 637 776 728T528 819Q436 819 358 788T219 694L160 707L342 1450H1034V1257H485L399 934Q459 959 515 971T627 983Q836 983 967 849T1098
500Q1098 254 945 108T535 -39Q383 -39 271 13T78 176L236 350Z" />
<glyph unicode="6" glyph-name="six" horiz-adv-x="1237" d="M340 449Q340 318 413 238T602 158Q733 158 808 236T883 449Q883 586 809 663T604 741Q487 741 414 660T340 449ZM473 889Q522 912 569 924T664 936Q860 936 987 803T1114 463Q1114 237 972 99T596
-39Q378 -39 246 96T113 451Q113 686 433 1136L459 1171L715 1534L897 1442L473 889Z" />
<glyph unicode="7" glyph-name="seven" horiz-adv-x="1237" d="M229 31L827 1262H150V1450H1159L422 -55L229 31Z" />
<glyph unicode="8" glyph-name="eight" horiz-adv-x="1237" d="M375 774Q266 821 215 897T164 1087Q164 1263 288 1371T616 1479Q825 1479 948 1370T1071 1077Q1071 969 1018 892T860 774Q982 734 1051 633T1120 393Q1120 191 987 76T616 -39Q383 -39 249 76T115
389Q115 533 183 633T375 774ZM621 1286Q517 1286 457 1232T397 1083Q397 991 455 939T616 887Q721 887 779 938T838 1083Q838 1178 780 1232T621 1286ZM616 156Q745 156 818 223T891 410Q891 530 818 598T616 666Q490 666 417 597T344 410Q344 291 416 224T616
156Z" />
<glyph unicode="9" glyph-name="nine" horiz-adv-x="1237" d="M879 993Q879 1124 807 1204T618 1284Q487 1284 412 1206T336 993Q336 855 410 777T614 698Q731 698 805 780T879 993ZM745 551Q699 528 652 517T555 506Q358 506 231 638T104 977Q104 1203 246 1341T623
1479Q841 1479 974 1345T1108 991Q1108 756 787 306L762 270L504 -92L324 0L745 551Z" />
<glyph unicode=":" glyph-name="colon" horiz-adv-x="674" d="M205 795Q205 848 243 886T336 924Q391 924 429 887T467 795Q467 740 429 702T336 664Q281 664 243 702T205 795ZM205 111Q205 164 243 203T336 242Q391 242 429 204T467 111Q467 57 429 20T336 -18Q281
-18 243 19T205 111Z" />
<glyph unicode=";" glyph-name="semicolon" horiz-adv-x="674" d="M293 795Q293 848 330 886T422 924Q478 924 515 887T553 795Q553 740 515 702T422 664Q368 664 331 702T293 795ZM315 248L510 176L250 -360L119 -309L315 248Z" />
<glyph unicode="&lt;" glyph-name="less" horiz-adv-x="1706" d="M1442 1176V991L508 610L1442 229V47L264 530V690L1442 1176Z" />
<glyph unicode="=" glyph-name="equal" horiz-adv-x="1706" d="M254 487H1452V322H254V487ZM254 901H1452V733H254V901Z" />
<glyph unicode="&gt;" glyph-name="greater" horiz-adv-x="1706" d="M264 1176L1442 690V530L264 47V229L1198 610L264 991V1176Z" />
<glyph unicode="?" glyph-name="question" horiz-adv-x="1114" d="M381 1116H209Q209 1122 208 1134T207 1153Q207 1310 302 1404T557 1499Q720 1499 816 1406T913 1155Q913 1040 857 967T633 811Q625 807 609 799Q412 701 412 614Q412 564 451 527T545 489Q612
489 648 529T686 645H864V625Q864 477 781 396T545 315Q403 315 311 398T219 610Q219 728 282 806T530 973Q655 1032 690 1070T725 1163Q725 1230 678 1273T557 1317Q475 1317 428 1264T381 1116ZM397 92Q397 146 436 184T528 223Q584 223 621 185T659 92Q659 38
621 0T528 -39Q474 -39 436 -1T397 92Z" />
<glyph unicode="@" glyph-name="at" horiz-adv-x="2048" d="M1174 283Q1119 196 1046 156T870 115Q718 115 638 201T557 451Q557 684 695 846T1028 1008Q1117 1008 1177 974T1276 866L1331 973H1485L1337 387Q1336 382 1335 375Q1329 347 1329 338Q1329 300 1355
277T1425 254Q1476 254 1532 284T1638 369Q1710 445 1748 546T1786 762Q1786 1015 1599 1173T1110 1331Q972 1331 854 1300T639 1206Q458 1093 360 915T262 520Q262 208 471 21T1030 -166Q1196 -166 1353 -117T1645 25L1712 -74Q1563 -187 1394 -244T1038 -301Q846
-301 687 -253T406 -111Q251 7 175 164T98 522Q98 687 150 835T303 1108Q450 1287 656 1380T1116 1473Q1282 1473 1431 1428T1686 1300Q1818 1198 1884 1065T1950 764Q1950 602 1885 462T1700 225Q1631 170 1550 142T1382 113Q1276 113 1225 153T1174 279V283ZM1233
707Q1219 791 1172 837T1049 883Q922 883 832 755T741 444Q741 346 786 293T915 240Q1005 240 1078 306T1178 479L1233 707Z" />
<glyph unicode="A" glyph-name="A" horiz-adv-x="1356" d="M477 575H885L735 909Q722 941 708 982T680 1075Q668 1027 655 986T627 909L477 575ZM1135 0L969 377H389L219 0H-31L678 1522L1386 0H1135Z" />
<glyph unicode="B" glyph-name="B" horiz-adv-x="1180" d="M401 846H492Q662 846 732 892T803 1049Q803 1169 738 1217T492 1266H401V846ZM401 199H483Q608 199 670 209T768 244Q812 273 836 322T860 430Q860 500 831 552T748 633Q714 650 671 658T555 666H483H401V199ZM168
0V1464H537Q695 1464 770 1447T899 1391Q967 1341 1004 1260T1042 1081Q1042 964 988 886T831 776Q959 756 1032 660T1106 416Q1106 327 1075 247T987 111Q927 50 838 25T539 0H168Z" />
<glyph unicode="C" glyph-name="C" horiz-adv-x="1470" d="M1343 1108Q1242 1194 1130 1237T893 1280Q653 1280 503 1126T352 727Q352 490 498 336T868 182Q998 182 1115 228T1341 367V98Q1245 29 1132 -5T887 -39Q719 -39 577 16T326 178Q219 283 162 425T104
729Q104 890 161 1031T328 1280Q437 1388 578 1443T883 1499Q1012 1499 1129 1462T1356 1348L1343 1108Z" />
<glyph unicode="D" glyph-name="D" horiz-adv-x="1516" d="M406 215H606Q771 215 853 237T997 311Q1080 382 1121 487T1163 733Q1163 873 1122 978T997 1155Q935 1207 849 1229T578 1251H492H406V215ZM168 0V1464H489Q802 1464 929 1433T1153 1327Q1280 1230 1345
1078T1411 731Q1411 536 1346 386T1153 137Q1057 63 935 32T553 0H489H168Z" />
<glyph unicode="E" glyph-name="E" horiz-adv-x="1090" d="M168 0V1464H985V1262H406V895H985V686H406V213H985V0H168Z" />
<glyph unicode="F" glyph-name="F" horiz-adv-x="1075" d="M168 0V1464H985V1262H406V897H985V688H406V0H168Z" />
<glyph unicode="G" glyph-name="G" horiz-adv-x="1645" d="M979 750H1559Q1559 735 1560 708Q1563 637 1563 612Q1563 303 1386 132T887 -39Q707 -39 566 14T319 174Q215 280 160 423T104 729Q104 895 160 1035T328 1282Q435 1387 579 1442T887 1497Q1060 1497
1196 1434T1440 1241L1266 1110Q1192 1196 1099 1238T891 1280Q653 1280 503 1128T352 731Q352 483 502 329T893 174Q1097 174 1214 269T1331 528V549H979V750Z" />
<glyph unicode="H" glyph-name="H" horiz-adv-x="1532" d="M168 0V1464H406V924H1126V1464H1364V0H1126V711H406V0H168Z" />
<glyph unicode="I" glyph-name="I" horiz-adv-x="584" d="M172 0V1464H410V0H172Z" />
<glyph unicode="J" glyph-name="J" horiz-adv-x="807" d="M156 266Q193 222 227 202T299 182Q369 182 397 228T426 399V1464H662V322Q662 136 580 49T324 -39Q228 -39 151 -2T4 113L156 266Z" />
<glyph unicode="K" glyph-name="K" horiz-adv-x="1270" d="M168 0V1464H406V858L932 1464H1223L643 813L1292 0H985L406 748V0H168Z" />
<glyph unicode="L" glyph-name="L" horiz-adv-x="963" d="M168 0V1464H406V213H938V0H168Z" />
<glyph unicode="M" glyph-name="M" horiz-adv-x="1767" d="M1362 723Q1358 740 1349 817Q1341 881 1335 923Q1326 873 1310 823T1268 721L885 -59L502 737Q478 786 461 832T430 923Q429 877 423 827T403 721L246 0H27L373 1526L805 602Q815 580 835 529T885 403Q906
466 951 563Q963 589 969 603L1391 1526L1745 0H1524L1362 723Z" />
<glyph unicode="N" glyph-name="N" horiz-adv-x="1645" d="M168 0V1522L1098 627Q1136 589 1175 546T1257 449V1464H1477V-57L528 854Q490 891 455 932T387 1018V0H168Z" />
<glyph unicode="O" glyph-name="O" horiz-adv-x="1774" d="M1421 729Q1421 840 1381 940T1264 1118Q1190 1195 1093 1236T887 1278Q779 1278 682 1237T508 1118Q432 1041 392 941T352 729Q352 618 392 519T508 342Q584 264 681 223T887 182Q994 182 1090 223T1264
342Q1340 420 1380 519T1421 729ZM1669 729Q1669 573 1611 434T1440 186Q1327 77 1185 19T887 -39Q729 -39 586 19T332 186Q220 295 162 433T104 729Q104 886 162 1025T332 1274Q444 1383 586 1440T887 1497Q1045 1497 1186 1440T1440 1274Q1552 1163 1610 1024T1669
729Z" />
<glyph unicode="P" glyph-name="P" horiz-adv-x="1090" d="M406 852H467Q665 852 731 895T797 1047Q797 1164 727 1212T467 1260H406V852ZM391 657V0H168V1464H528Q688 1464 763 1447T895 1389Q964 1338 1003 1252T1042 1061Q1042 957 1003 869T895 731Q839 691
764 674T528 657H481H391Z" />
<glyph unicode="Q" glyph-name="Q" horiz-adv-x="1774" d="M1151 524L1292 373Q1359 454 1390 541T1421 731Q1421 843 1382 942T1266 1118Q1189 1196 1091 1238T887 1280Q780 1280 682 1238T508 1118Q432 1041 392 942T352 731Q352 501 507 344T893 186Q955 186
1011 199T1124 242L862 524H1151ZM1448 199L1759 -137H1475L1284 70Q1186 17 1085 -9T874 -35Q725 -35 582 24T332 188Q221 296 163 435T104 731Q104 888 162 1027T332 1274Q442 1382 584 1439T887 1497Q1046 1497 1188 1440T1440 1274Q1551 1165 1610 1026T1669
731Q1669 579 1613 443T1448 199Z" />
<glyph unicode="R" glyph-name="R" horiz-adv-x="1147" d="M406 840H449Q638 840 700 884T762 1040Q762 1161 696 1210T449 1260H406V840ZM391 655V0H168V1464H500Q646 1464 726 1445T864 1382Q932 1329 969 1245T1006 1061Q1006 885 921 786T670 666L1174 0H905L418
655H391Z" />
<glyph unicode="S" glyph-name="S" horiz-adv-x="1124" d="M84 293L274 381Q301 283 373 232T557 180Q663 180 725 239T788 397Q788 526 574 627Q544 642 528 649Q286 767 206 862T125 1096Q125 1275 246 1386T565 1497Q727 1497 836 1435T987 1255L801 1159Q757
1228 705 1260T584 1292Q488 1292 432 1242T375 1108Q375 976 623 862Q642 853 653 848Q870 748 951 653T1032 414Q1032 206 901 84T547 -39Q360 -39 241 47T84 293Z" />
<glyph unicode="T" glyph-name="T" horiz-adv-x="1042" d="M641 1262V0H403V1262H14V1464H1028V1262H641Z" />
<glyph unicode="U" glyph-name="U" horiz-adv-x="1524" d="M162 1464H397V575Q397 377 488 278T762 178Q943 178 1034 277T1126 575V1464H1364V553Q1364 256 1214 109T762 -39Q460 -39 311 108T162 553V1464Z" />
<glyph unicode="V" glyph-name="V" horiz-adv-x="1266" d="M633 -57L-20 1464H227L555 684Q584 616 603 559T633 449Q646 504 666 563T713 684L1040 1464H1286L633 -57Z" />
<glyph unicode="W" glyph-name="W" horiz-adv-x="1923" d="M-6 1464H229L506 725Q533 652 551 597T584 494Q619 610 657 721Q662 735 664 740L958 1522L1268 725Q1290 667 1309 609T1346 492Q1356 537 1373 591T1417 719L1692 1464H1929L1362 -57L1028 778Q1006
834 988 885T956 983Q939 924 922 873T887 774L559 -57L-6 1464Z" />
<glyph unicode="X" glyph-name="X" horiz-adv-x="1171" d="M0 0L475 766L55 1464H305L516 1106Q533 1078 579 990Q589 970 594 961Q610 992 629 1027T674 1104L897 1464H1141L713 770L1174 0H911L666 415Q665 417 662 422Q622 497 588 563Q571 529 551 493T508
418L252 0H0Z" />
<glyph unicode="Y" glyph-name="Y" horiz-adv-x="1214" d="M483 0V670L-10 1464H240L547 967Q558 948 574 917T608 850Q622 885 637 916T670 973L985 1464H1223L719 670V0H483Z" />
<glyph unicode="Z" glyph-name="Z" horiz-adv-x="1180" d="M18 0L764 1262H143V1464H1130L391 213H1139V0H18Z" />
<glyph unicode="[" glyph-name="bracketleft" horiz-adv-x="621" d="M389 -256H580V-414H199V1497H580V1341H389V-256Z" />
<glyph unicode="\" glyph-name="backslash" horiz-adv-x="887" d="M717 -190L0 1497H170L887 -190H717Z" />
<glyph unicode="]" glyph-name="bracketright" horiz-adv-x="621" d="M231 -256V1341H43V1497H422V-414H43V-256H231Z" />
<glyph unicode="^" glyph-name="asciicircum" horiz-adv-x="2048" d="M915 1460H1133L1628 899H1421L1024 1296L625 899H418L915 1460Z" />
<glyph unicode="_" glyph-name="underscore" horiz-adv-x="1024" d="M0 -311H1024V-483H0V-311Z" />
<glyph unicode="`" glyph-name="grave" horiz-adv-x="1024" d="M653 1092H530L238 1364H463L653 1092Z" />
<glyph unicode="a" glyph-name="a" horiz-adv-x="1192" d="M1042 0H825V123Q767 41 690 1T512 -39Q311 -39 196 98T80 475Q80 702 198 841T506 981Q622 981 704 933T825 793V948H1042V0ZM831 477Q831 624 763 706T571 788Q448 788 378 704T307 469Q307 318 375
236T567 154Q684 154 757 243T831 477Z" />
<glyph unicode="b" glyph-name="b" horiz-adv-x="1192" d="M360 477Q360 332 434 243T627 154Q750 154 817 236T885 469Q885 619 815 703T621 788Q498 788 429 706T360 477ZM367 1550V793Q405 883 488 932T688 981Q877 981 994 842T1112 475Q1112 236 997 99T680
-39Q580 -39 503 1T367 123V0H150V1550H367Z" />
<glyph unicode="c" glyph-name="c" horiz-adv-x="930" d="M858 678Q808 733 742 762T598 791Q465 791 385 705T305 477Q305 329 385 245T608 160Q687 160 749 189T858 279V29Q798 -5 730 -22T584 -39Q361 -39 221 103T80 471Q80 700 225 840T606 981Q680 981 742
967T858 922V678Z" />
<glyph unicode="d" glyph-name="d" horiz-adv-x="1192" d="M831 477Q831 624 763 706T571 788Q448 788 378 704T307 469Q307 318 375 236T567 154Q685 154 758 242T831 477ZM825 1550H1042V0H825V123Q767 41 690 1T512 -39Q311 -39 196 98T80 475Q80 702 198 841T506
981Q622 981 704 933T825 793V1550Z" />
<glyph unicode="e" glyph-name="e" horiz-adv-x="1139" d="M1063 442H305Q313 309 384 235T573 160Q678 160 748 204T870 346L1053 244Q973 101 855 31T578 -39Q350 -39 215 100T80 471Q80 694 219 837T578 981Q807 981 935 850T1063 483V442ZM838 588Q825 690
760 743T582 797Q475 797 410 745T319 588H838Z" />
<glyph unicode="f" glyph-name="f" horiz-adv-x="627" d="M180 0V758H14V948H180V1202Q180 1391 258 1481T502 1571Q537 1571 574 1566T649 1550V1354Q623 1369 597 1376T543 1384Q465 1384 431 1336T397 1174V948H625V758H397V0H180Z" />
<glyph unicode="g" glyph-name="g" horiz-adv-x="1192" d="M831 477Q831 624 763 706T571 788Q448 788 378 704T307 469Q307 318 375 236T567 154Q684 154 757 243T831 477ZM1042 59Q1042 -219 931 -332T557 -446Q361 -446 244 -364T125 -144L358 -143Q363 -204
415 -236T561 -268Q700 -268 761 -207T823 -3L825 123Q767 41 690 1T512 -39Q311 -39 196 98T80 475Q80 702 198 841T506 981Q622 981 704 933T825 793V948H1042V59Z" />
<glyph unicode="h" glyph-name="h" horiz-adv-x="1204" d="M150 0V1550H354V793Q419 891 507 936T721 981Q827 981 901 948T1018 848Q1043 809 1054 757T1065 575V0H846V487Q846 674 801 735T639 797Q563 797 504 769T410 690Q386 656 377 603T367 432V0H150Z" />
<glyph unicode="i" glyph-name="i" horiz-adv-x="537" d="M131 1358Q131 1413 171 1453T268 1493Q326 1493 364 1455T403 1358Q403 1300 364 1261T268 1221Q212 1221 172 1261T131 1358ZM160 0V948H377V0H160Z" />
<glyph unicode="j" glyph-name="j" horiz-adv-x="537" d="M131 1358Q131 1413 171 1453T268 1493Q326 1493 364 1455T403 1358Q403 1300 364 1261T268 1221Q212 1221 172 1261T131 1358ZM160 -446V948H377V-446H160Z" />
<glyph unicode="k" glyph-name="k" horiz-adv-x="1057" d="M150 0V1550H367V555L764 948H1032L602 530L1073 0H793L367 489V0H150Z" />
<glyph unicode="l" glyph-name="l" horiz-adv-x="537" d="M160 0V1550H377V0H160Z" />
<glyph unicode="m" glyph-name="m" horiz-adv-x="1792" d="M367 0H150V948H354V793Q419 892 501 937T696 983Q807 983 880 937T991 795Q1066 893 1150 938T1343 983Q1437 983 1507 949T1616 848Q1634 817 1642 774T1651 651V575V0H1434V487Q1434 678 1394 738T1249
799Q1121 799 1067 718T1012 432V0H793V487Q793 663 751 731T604 799Q540 799 487 770T403 690Q383 657 375 609T367 432V0Z" />
<glyph unicode="n" glyph-name="n" horiz-adv-x="1204" d="M150 0V948H354V793Q419 891 507 936T721 981Q827 981 901 948T1018 848Q1043 809 1054 757T1065 575V0H846V487Q846 674 801 735T639 797Q563 797 504 769T410 690Q386 656 377 603T367 432V0H150Z" />
<glyph unicode="o" glyph-name="o" horiz-adv-x="1204" d="M895 471Q895 603 810 694T602 786Q480 786 395 695T309 471Q309 339 394 248T602 156Q724 156 809 247T895 471ZM80 473Q80 577 119 669T233 834Q306 905 401 943T600 981Q707 981 801 943T971 831Q1046
758 1085 666T1124 473Q1124 368 1086 276T973 113Q895 38 800 0T600 -39Q497 -39 402 -1T233 111Q158 185 119 277T80 473Z" />
<glyph unicode="p" glyph-name="p" horiz-adv-x="1192" d="M360 477Q360 330 433 242T627 154Q750 154 817 236T885 469Q885 619 815 703T621 788Q498 788 429 706T360 477ZM150 -446V948H367V793Q405 883 488 932T688 981Q877 981 994 842T1112 475Q1112 236
997 99T680 -39Q580 -39 503 1T367 123V-446H150Z" />
<glyph unicode="q" glyph-name="q" horiz-adv-x="1192" d="M831 477Q831 624 763 706T571 788Q448 788 378 704T307 469Q307 318 375 236T567 154Q686 154 758 242T831 477ZM1042 -446H825V123Q767 41 690 1T512 -39Q311 -39 196 98T80 475Q80 702 198 841T506
981Q622 981 704 933T825 793V948H1042V-446Z" />
<glyph unicode="r" glyph-name="r" horiz-adv-x="754" d="M367 797Q402 891 459 936T602 981Q648 981 692 970T780 938L702 754Q674 774 642 783T569 793Q461 793 414 707T367 416V0H150V950H367V797Z" />
<glyph unicode="s" glyph-name="s" horiz-adv-x="872" d="M41 172L221 270Q241 199 295 162T434 125Q507 125 548 158T590 250Q590 327 442 382Q392 400 365 412Q213 475 153 540T92 698Q92 825 191 904T455 983Q565 983 643 943T758 827L604 721Q587 766 545
792T446 819Q384 819 347 790T309 711Q309 637 477 576Q530 557 559 545Q690 493 746 428T803 264Q803 122 700 42T416 -39Q277 -39 185 13T41 172Z" />
<glyph unicode="t" glyph-name="t" horiz-adv-x="621" d="M201 0V758H35V948H201V1307H418V948H584V758H418V0H201Z" />
<glyph unicode="u" glyph-name="u" horiz-adv-x="1204" d="M360 948V414Q360 276 417 216T602 156Q730 156 787 216T844 414V948H1061V479Q1061 207 952 84T604 -39Q361 -39 252 83T143 479V948H360Z" />
<glyph unicode="v" glyph-name="v" horiz-adv-x="967" d="M483 -57L-14 948H223L430 471Q440 449 454 405T483 300Q493 343 506 385T539 471L745 948H981L483 -57Z" />
<glyph unicode="w" glyph-name="w" horiz-adv-x="1536" d="M1057 -57L838 436Q813 493 797 537T768 625Q746 560 729 514T702 444L477 -57L-14 948H217L430 491Q443 462 455 412T477 300Q478 336 489 375T526 471L758 983H776L1012 471Q1034 423 1044 382T1057
300Q1066 354 1080 402T1112 489L1321 948H1550L1057 -57Z" />
<glyph unicode="x" glyph-name="x" horiz-adv-x="928" d="M215 0H-25L334 510L27 948H266L399 752Q420 722 436 694T465 637Q477 661 492 687T532 754L664 948H901L594 508L950 0H713L537 249Q534 254 529 261Q478 338 463 379Q443 341 425 309T387 248L215 0Z" />
<glyph unicode="y" glyph-name="y" horiz-adv-x="965" d="M313 -446H90L350 82L2 948H242L416 457Q431 412 442 366T461 271Q474 321 523 430L528 442L762 948H997L313 -446Z" />
<glyph unicode="z" glyph-name="z" horiz-adv-x="920" d="M879 0H-2L526 758H51V948H879L362 190H879V0Z" />
<glyph unicode="{" glyph-name="braceleft" horiz-adv-x="1024" d="M874 1477V1298Q866 1298 850 1299T827 1300Q718 1300 680 1259T641 1085V844Q641 689 597 624T438 530Q552 503 596 438T641 217V-23Q641 -155 680 -197T829 -240Q836 -240 851 -239T874 -238V-414H811Q709
-414 646 -402T539 -365Q482 -331 459 -269T436 -66V182Q436 326 384 385T205 444Q198 444 184 443T162 442V621Q169 621 183 620T205 618Q331 618 383 677T436 879V1126Q436 1271 459 1332T539 1427Q583 1454 648 1465T829 1477H874Z" />
<glyph unicode="|" glyph-name="bar" horiz-adv-x="1024" d="M424 1565H602V-483H424V1565Z" />
<glyph unicode="}" glyph-name="braceright" horiz-adv-x="1024" d="M152 1477H197Q312 1477 376 1466T485 1427Q542 1394 565 1332T588 1126V879Q588 735 640 677T819 618Q825 618 840 619T862 621V442Q855 442 841 443T819 444Q693 444 641 385T588 182V-66Q588
-209 565 -270T485 -365Q442 -391 377 -402T197 -414H152V-238Q160 -238 175 -239T197 -240Q306 -240 344 -198T383 -23V217Q383 370 428 436T588 530Q473 558 428 623T383 844V1085Q383 1217 345 1258T199 1300Q192 1300 176 1299T152 1298V1477Z" />
<glyph unicode="~" glyph-name="asciitilde" horiz-adv-x="1706" d="M1530 784V600Q1427 529 1333 494T1149 459Q1105 459 1057 467T958 494Q933 502 882 520Q670 594 563 594Q481 594 389 556T178 434V621Q284 693 380 728T565 764Q627 764 690 752T859 704Q872
700 901 689Q1065 631 1151 631Q1236 631 1328 668T1530 784Z" />
</font>
</defs>
</svg>
