<?xml version="1.0" standalone="no"?>
<!DOCTYPE svg PUBLIC "-//W3C//DTD SVG 1.1//EN" "http://www.w3.org/Graphics/SVG/1.1/DTD/svg11.dtd" >
<svg xmlns="http://www.w3.org/2000/svg">
<metadata>
This is a custom SVG webfont generated by Font Squirrel.
Copyright   : aAvanteTitlerCapsUpC Arsenal Company 1997 FAX 0959243775 eMail arsenalitcomsksu Phone 0959245811 Design and Featuring WChufarofsky  MSlutsker
</metadata>
<defs>
<font id="aAvanteTitlerCpsUpCLight" horiz-adv-x="1024" >
<font-face units-per-em="2048" ascent="1638" descent="-410" />
<missing-glyph horiz-adv-x="811" />
<glyph unicode=" "  horiz-adv-x="811" />
<glyph unicode="&#x09;" horiz-adv-x="811" />
<glyph unicode="&#xa0;" horiz-adv-x="811" />
<glyph unicode="!" horiz-adv-x="587" d="M223 0v252h142v-252h-142zM223 397v1078h142v-1078h-142z" />
<glyph unicode="&#x22;" horiz-adv-x="569" d="M98 922v553h103v-553h-103zM371 922v553h102v-553h-102z" />
<glyph unicode="#" horiz-adv-x="1576" d="M147 479l27 107h326l65 278h-352l23 107h354l112 483h127l-108 -483h264l113 483h127l-111 -483h316l-25 -107h-318l-63 -278h340l-25 -107h-340l-110 -479h-129l112 479h-268l-112 -479h-127l110 479h-328zM631 586h266l61 278h-266z" />
<glyph unicode="$" horiz-adv-x="1153" d="M152 428h135q0 -303 286 -303q129 0 209 69.5t80 198.5q0 78 -22 123q-45 92 -222 154q-238 82 -286 114q-143 92 -144 279q0 145 88.5 251.5t231.5 125.5v188h139v-188q152 -16 234 -113.5t90 -251.5h-140q0 111 -67.5 178.5t-177.5 67.5q-119 0 -189.5 -66.5 t-70.5 -183.5q0 -68 28 -113q49 -74 228 -135q215 -74 282 -121q139 -100 140 -286q0 -168 -96.5 -285t-260.5 -131v-221h-139v221q-166 16 -264 141q-92 117 -92 287z" />
<glyph unicode="%" horiz-adv-x="1796" d="M92 1126q0 150 104.5 254.5t254.5 104.5t254 -104.5t104 -254.5q0 -152 -103.5 -255t-254.5 -103q-152 0 -255.5 103t-103.5 255zM219 1126q0 -96 66.5 -165.5t160.5 -69.5t164 70.5t70 164.5t-69.5 165t-164.5 71q-94 0 -160.5 -70t-66.5 -166zM414 -29l837 1514h131 l-837 -1514h-131zM987 330q0 150 104.5 254t254.5 104t254 -104.5t104 -253.5q0 -152 -103.5 -255.5t-254.5 -103.5q-152 0 -255.5 103.5t-103.5 255.5zM1114 330q0 -96 65.5 -166t161.5 -70t165 69.5t69 166.5q0 94 -69.5 164.5t-164.5 70.5q-96 0 -161.5 -69.5 t-65.5 -165.5z" />
<glyph unicode="&#x26;" horiz-adv-x="1429" d="M129 408q0 135 82 249q78 106 205 166q-92 82 -127 140q-49 80 -49 182q0 145 104.5 241.5t251.5 96.5q135 0 236.5 -101.5t101.5 -236.5q0 -223 -287 -354l305 -283l172 457l129 -52l-196 -503l327 -299l-86 -103l-299 271q-141 -307 -444 -308q-178 0 -302 128.5 t-124 308.5zM279 408q0 -131 75 -215q80 -90 209 -91q182 0 336 269l-395 366q-225 -108 -225 -329zM385 1143q0 -127 172 -264q229 88 229 272q0 86 -56 148.5t-140 62.5q-92 0 -148.5 -62.5t-56.5 -156.5z" />
<glyph unicode="'" horiz-adv-x="294" d="M98 922v553h103v-553h-103z" />
<glyph unicode="(" horiz-adv-x="546" d="M127 170v715q0 453 311 618v-164q-106 -84 -143 -217q-25 -90 -25 -262v-665q0 -172 25 -263q37 -133 143 -217v-164q-311 166 -311 619z" />
<glyph unicode=")" horiz-adv-x="546" d="M111 -285q106 84 143 217q25 90 25 263v665q0 172 -25 262q-37 133 -143 217v164q311 -168 311 -618v-715q0 -451 -311 -619v164z" />
<glyph unicode="*" d="M125 1128l37 119l291 -96v305h114v-305l289 96l41 -119l-301 -86l205 -251l-105 -74l-186 264l-182 -264l-107 74l201 251z" />
<glyph unicode="+" horiz-adv-x="1705" d="M252 571v107h547v557h110v-557h545v-107h-545v-557h-110v557h-547z" />
<glyph unicode="," horiz-adv-x="577" d="M104 -162l156 428h143l-155 -428h-144z" />
<glyph unicode="-" horiz-adv-x="659" d="M94 492v129h469v-129h-469z" />
<glyph unicode="." horiz-adv-x="577" d="M217 0v266h143v-266h-143z" />
<glyph unicode="/" horiz-adv-x="577" d="M-49 -193l504 1668h123l-506 -1668h-121z" />
<glyph unicode="0" horiz-adv-x="1157" d="M86 512v432q0 238 125 385q133 158 367 158q240 0 370 -150q123 -143 123 -385v-446q0 -242 -125 -385q-131 -150 -368 -150q-240 0 -369 154q-123 143 -123 387zM227 481q0 -176 86 -276q92 -106 265 -107q170 0 262 107q88 100 88 272v502q0 174 -88 272 q-92 106 -262 107q-172 0 -265 -109q-86 -100 -86 -276v-492z" />
<glyph unicode="1" horiz-adv-x="1153" d="M229 0v125h297v1206h-231v125h375v-1331h278v-125h-719z" />
<glyph unicode="2" horiz-adv-x="1161" d="M133 0v131l518 496q123 117 168 178q80 113 80 225q0 154 -78 242q-84 92 -235 92q-150 0 -234 -113q-76 -100 -76 -254v-26h-143v20q0 221 127 364.5t346 143.5q209 0 323.5 -129t114.5 -340q0 -219 -229 -434l-496 -465h725v-131h-911z" />
<glyph unicode="3" horiz-adv-x="1157" d="M109 436h145q0 -340 311 -340q145 0 241.5 96.5t96.5 239.5q0 408 -356 408q-55 0 -131 -23l-56 80l433 449h-596v129h766v-129l-388 -390q233 0 354.5 -137t121.5 -373q0 -201 -138.5 -338t-339.5 -137q-219 0 -341.5 123t-122.5 342z" />
<glyph unicode="4" horiz-adv-x="1157" d="M111 281v127l665 1048h156v-1048h178v-127h-178v-281h-141v281h-680zM260 408h531v837h-7z" />
<glyph unicode="5" horiz-adv-x="1157" d="M86 442h143q0 -145 102.5 -242.5t248.5 -97.5q168 0 264 119q90 111 90 283q0 367 -346 366q-215 0 -322 -157l-110 41l129 721h692v-129h-569l-76 -412l6 -4q127 76 254 76q229 0 357 -137.5t128 -368.5q0 -221 -141 -375t-361 -154q-201 0 -345 136t-144 335z" />
<glyph unicode="6" horiz-adv-x="1157" d="M84 451q0 121 68 260q35 72 139 233l330 512h178l-342 -526l6 -6q127 29 153 28q203 0 330 -140t127 -345q0 -215 -141 -355.5t-357 -140.5q-207 0 -349 136.5t-142 343.5zM233 465q0 -152 102.5 -259.5t252.5 -107.5t246 109q90 104 90 256q0 154 -90 256 q-96 106 -248 106q-150 0 -251.5 -105t-101.5 -255z" />
<glyph unicode="7" horiz-adv-x="1157" d="M152 1335v140h856v-140l-582 -1335h-150l584 1335h-708z" />
<glyph unicode="8" horiz-adv-x="1157" d="M113 418q0 283 227 395v8q-162 111 -162 279q0 160 118 273.5t279 113.5q162 0 283 -108.5t121 -268.5q0 -170 -164 -289v-8q229 -111 229 -389q0 -209 -133 -332t-342 -123q-195 0 -325.5 127t-130.5 322zM258 418q0 -135 89 -226.5t222 -91.5q143 0 235.5 90.5 t92.5 233.5q0 145 -81 234.5t-224 89.5h-35q-139 0 -219 -94.5t-80 -235.5zM317 1120q0 -109 67 -175t175 -66h29q113 0 182.5 64.5t69.5 174.5q0 109 -74 174.5t-184 65.5q-106 0 -183 -66q-82 -68 -82 -172z" />
<glyph unicode="9" horiz-adv-x="1157" d="M86 991q0 215 139.5 355.5t354.5 140.5q207 0 348 -136.5t141 -342.5q0 -59 -8 -107q-20 -115 -195 -387l-329 -514h-168l350 537l-4 4q-82 -35 -174 -35q-201 0 -330 143q-125 137 -125 342zM233 995q0 -156 91 -256q94 -106 247 -106q150 0 250.5 105.5t100.5 254.5 q0 152 -101.5 258.5t-251.5 106.5t-243 -105.5t-93 -257.5z" />
<glyph unicode=":" horiz-adv-x="587" d="M223 0v266h144v-266h-144zM223 834v266h144v-266h-144z" />
<glyph unicode=";" horiz-adv-x="587" d="M104 -162l150 428h149l-155 -428h-144zM223 834v266h144v-266h-144z" />
<glyph unicode="&#x3c;" horiz-adv-x="1705" d="M264 569v82l1178 484v-109l-1022 -416l1022 -413v-109z" />
<glyph unicode="=" horiz-adv-x="1705" d="M254 375v98h1198v-98h-1198zM254 748v98h1198v-98h-1198z" />
<glyph unicode="&#x3e;" horiz-adv-x="1705" d="M264 88v109l1022 413l-1022 416v109l1178 -484v-82z" />
<glyph unicode="?" horiz-adv-x="948" d="M45 1012q0 199 117 331q123 141 319 142q184 0 296 -122t112 -308q0 -121 -53 -199q-37 -53 -127.5 -146.5t-126.5 -148.5q-47 -70 -47 -164h-144q0 176 166 355l127 131q53 68 53 174q0 127 -68.5 202.5t-195.5 75.5q-141 0 -215 -94q-66 -84 -65 -229h-148zM391 0v266 h144v-266h-144z" />
<glyph unicode="@" horiz-adv-x="2048" d="M117 537q0 418 338 696q268 221 659 221q170 0 313 -45q225 -70 361 -231q143 -172 143 -400q0 -174 -61 -309q-68 -152 -197 -244q-135 -100 -295 -100q-72 0 -119 44t-47 116h-10q-117 -160 -309 -160q-313 0 -313 328q0 215 122 372q133 174 342 174q188 0 254 -163 l37 137l117 -12l-139 -562q-16 -66 -17 -92q0 -92 107 -92q49 0 104 21q154 57 238 223q74 147 74 325q0 123 -52 230q-84 176 -274 268q-168 82 -381 82q-350 0 -582 -199q-297 -256 -297 -653q0 -332 232 -528q217 -182 557 -183q352 0 635 193l39 -55 q-295 -221 -654 -222q-399 0 -653 207q-272 222 -272 613zM702 444q0 -106 50 -168q55 -68 157 -67q119 0 207 86q68 68 94 174l62 248q-39 199 -215 198q-172 0 -271 -155q-84 -134 -84 -316z" />
<glyph unicode="A" horiz-adv-x="1216" d="M-25 0l574 1475h119l573 -1475h-149l-185 479h-598l-184 -479h-150zM358 608h500l-248 645h-4z" />
<glyph unicode="B" horiz-adv-x="1071" d="M143 0v1475h277q229 0 346 -76q143 -92 143 -309q0 -238 -198 -299q281 -84 280 -359q0 -432 -518 -432h-330zM283 129h180q381 0 381 285q0 172 -96 237q-78 53 -259 54h-206v-576zM283 829h155q162 0 236 52q90 61 90 215q0 250 -354 250h-127v-517z" />
<glyph unicode="C" horiz-adv-x="1544" d="M70 748q0 309 219 532t526 223q449 0 662 -409h-174q-193 266 -490 266q-248 0 -422 -183.5t-174 -431.5q0 -258 170 -446t426 -188q307 0 492 254h172q-100 -188 -270.5 -291t-383.5 -103q-328 0 -540.5 223.5t-212.5 553.5z" />
<glyph unicode="D" horiz-adv-x="1398" d="M143 0v1475h422q350 0 557 -192.5t207 -541.5q0 -354 -202.5 -547.5t-557.5 -193.5h-426zM285 129h270q303 0 465 157.5t162 458.5q0 287 -172 447q-166 154 -455 154h-270v-1217z" />
<glyph unicode="E" d="M143 0v1475h764v-129h-622v-523h549v-129h-549v-565h622v-129h-764z" />
<glyph unicode="F" horiz-adv-x="956" d="M143 0v1475h727v-129h-585v-529h493v-129h-493v-688h-142z" />
<glyph unicode="G" horiz-adv-x="1634" d="M70 745q0 324 219 541t542 217q444 0 660 -399h-178q-201 258 -490 258q-254 0 -430 -180.5t-176 -436.5q0 -266 172 -450t436 -184q207 0 366 131t206 336h-633v129h807q-20 -315 -230 -525q-215 -211 -528 -211q-324 0 -537 228q-206 220 -206 546z" />
<glyph unicode="H" horiz-adv-x="1282" d="M143 0v1475h142v-652h712v652h142v-1475h-142v694h-712v-694h-142z" />
<glyph unicode="I" horiz-adv-x="440" d="M150 0v1475h141v-1475h-141z" />
<glyph unicode="J" horiz-adv-x="540" d="M-27 -12v137q180 0 230 55q41 51 41 236v1059h141v-1084q0 -236 -87 -319.5t-325 -83.5z" />
<glyph unicode="K" horiz-adv-x="1157" d="M143 0v1475h142v-1475h-142zM289 760l667 715h193l-682 -701l711 -774h-185z" />
<glyph unicode="L" horiz-adv-x="862" d="M147 0v1475h142v-1344h522v-131h-664z" />
<glyph unicode="M" horiz-adv-x="1736" d="M143 0v1475h215l508 -1291h4l508 1291h215v-1475h-141v1223l6 80h-6l-518 -1303h-131l-518 1303h-6l6 -80v-1223h-142z" />
<glyph unicode="N" horiz-adv-x="1396" d="M143 0v1475h174l805 -1285q-4 53 -4 193v1092h135v-1475h-176l-803 1280q4 -57 5 -152v-1128h-136z" />
<glyph unicode="O" horiz-adv-x="1648" d="M68 748q0 307 223 531t530 224q313 0 536.5 -222t223.5 -533q0 -324 -219 -550.5t-543 -226.5t-537.5 225.5t-213.5 551.5zM215 745q0 -268 174 -454.5t440 -186.5q262 0 437 193q168 188 168 453q0 254 -180.5 437t-434.5 183q-246 0 -425 -188.5t-179 -436.5z" />
<glyph unicode="P" horiz-adv-x="1075" d="M143 0v1475h361q508 0 508 -422q0 -219 -144 -328q-127 -98 -352 -98h-229v-627h-144zM287 756h217q352 0 352 291q0 299 -364 299h-205v-590z" />
<glyph unicode="Q" horiz-adv-x="1648" d="M68 748q0 307 223 531t530 224q313 0 536.5 -222t223.5 -533q0 -193 -84 -360t-240 -277l324 14v-154l-553 29q4 0 -20 -6q-90 -23 -189 -23q-324 0 -537.5 225.5t-213.5 551.5zM215 745q0 -268 174 -454.5t440 -186.5q262 0 437 193q168 188 168 453q0 254 -180.5 437 t-434.5 183q-246 0 -425 -188.5t-179 -436.5z" />
<glyph unicode="R" horiz-adv-x="1069" d="M143 0v1475h361q508 0 508 -422q0 -207 -138 -312q-123 -94 -335 -94l481 -647h-172l-543 756q283 0 363 22q188 55 188 266q0 168 -102 240q-86 61 -262 62h-205v-1346h-144z" />
<glyph unicode="S" horiz-adv-x="985" d="M70 422h141q0 -131 68 -219q76 -98 202 -99q133 0 209 95q72 88 72 223q0 106 -62.5 171.5t-232.5 135.5q-182 76 -244 125q-113 92 -112 248q0 176 109.5 289.5t283.5 113.5q172 0 270 -112q90 -104 100 -281h-137q-23 258 -233 258q-111 0 -180.5 -73.5t-69.5 -186.5 q0 -78 47 -132t170 -106q168 -70 250 -120q145 -90 174 -199q14 -53 14 -131q0 -195 -118.5 -324t-311.5 -129q-186 0 -301 135q-108 130 -108 318z" />
<glyph unicode="T" horiz-adv-x="776" d="M18 1343v132h740v-132h-301v-1343h-144v1343h-295z" />
<glyph unicode="U" horiz-adv-x="1218" d="M141 420v1055h142v-1041q0 -170 78.5 -250t248.5 -80t249 80t79 250v1041h141v-1053q0 -213 -127 -333t-342 -120q-217 0 -343 118t-126 333z" />
<glyph unicode="V" horiz-adv-x="1191" d="M-18 1475h149l463 -1254h4l463 1254h149l-559 -1475h-110z" />
<glyph unicode="W" horiz-adv-x="1835" d="M6 1475h150l352 -1254h4l352 1254h107l352 -1254h4l352 1254h150l-445 -1475h-118l-346 1221h-5l-346 -1221h-118z" />
<glyph unicode="X" horiz-adv-x="1179" d="M-6 0l512 743l-500 732h180l406 -613l403 613h179l-500 -732l512 -743h-182l-412 627l-420 -627h-178z" />
<glyph unicode="Y" horiz-adv-x="1085" d="M0 1475h166l377 -717l381 717h161l-473 -885v-590h-141v590z" />
<glyph unicode="Z" horiz-adv-x="950" d="M39 0v139l690 1196h-649v140h815v-140l-690 -1192h706v-143h-872z" />
<glyph unicode="[" horiz-adv-x="546" d="M135 -416v1891h336v-121h-192v-1651h192v-119h-336z" />
<glyph unicode="\" horiz-adv-x="577" d="M0 1475h121l506 -1668h-123z" />
<glyph unicode="]" horiz-adv-x="546" d="M76 -297h194v1651h-194v121h338v-1891h-338v119z" />
<glyph unicode="^" d="M80 1096l362 379h140l360 -379h-154l-276 276l-279 -276h-153z" />
<glyph unicode="_" d="M-12 -383h1048v-100h-1048v100z" />
<glyph unicode="`" horiz-adv-x="976" d="M264 1524h144l200 -334h-88z" />
<glyph unicode="a" horiz-adv-x="997" d="M-20 0l471 1194h96l471 -1194h-123l-152 389h-489l-152 -389h-122zM295 494h410l-205 522h-2z" />
<glyph unicode="b" horiz-adv-x="878" d="M117 0v1194h227q401 0 401 -311q0 -190 -161 -242q229 -70 229 -291q0 -350 -426 -350h-270zM231 104h148q313 0 313 232q0 139 -80 192q-66 43 -211 43h-170v-467zM231 672h127q131 0 193 41q76 49 76 174q0 203 -291 203h-105v-418z" />
<glyph unicode="c" horiz-adv-x="1265" d="M57 606q0 252 179.5 432.5t431.5 180.5q367 0 542 -332h-141q-162 215 -401 215q-201 0 -345.5 -147.5t-144.5 -350.5q0 -211 140.5 -362.5t349.5 -151.5q252 0 401 205h141q-176 -317 -534 -318q-268 0 -443.5 179.5t-175.5 449.5z" />
<glyph unicode="d" horiz-adv-x="1146" d="M117 0v1194h346q287 0 455 -152q172 -158 172 -442q0 -289 -166 -444.5t-457 -155.5h-350zM233 104h222q248 0 381 127t133 373q0 233 -142 363q-137 123 -372 123h-222v-986z" />
<glyph unicode="e" horiz-adv-x="839" d="M117 0v1194h626v-104h-510v-422h451v-105h-451v-459h510v-104h-626z" />
<glyph unicode="f" horiz-adv-x="784" d="M117 0v1194h596v-104h-480v-428h406v-105h-406v-557h-116z" />
<glyph unicode="g" horiz-adv-x="1339" d="M57 604q0 262 180.5 438.5t444.5 176.5q365 0 541 -324h-146q-168 209 -401 209q-207 0 -352.5 -145.5t-145.5 -354.5q0 -217 141.5 -365.5t356.5 -148.5q170 0 300 105.5t169 271.5h-518v104h661q-16 -256 -190 -425t-430 -169q-266 0 -438.5 180.5t-172.5 446.5z" />
<glyph unicode="h" horiz-adv-x="1050" d="M117 0v1194h116v-526h584v526h117v-1194h-117v563h-584v-563h-116z" />
<glyph unicode="i" horiz-adv-x="360" d="M123 0v1194h115v-1194h-115z" />
<glyph unicode="j" horiz-adv-x="442" d="M-23 -10v110q147 0 185.5 43t38.5 193v858h114v-879q0 -193 -71.5 -259t-266.5 -66z" />
<glyph unicode="k" horiz-adv-x="948" d="M117 0v1194h116v-1194h-116zM238 616l546 578h158l-559 -567l584 -627h-152z" />
<glyph unicode="l" horiz-adv-x="706" d="M121 0v1194h117v-1088h428v-106h-545z" />
<glyph unicode="m" horiz-adv-x="1423" d="M117 0v1194h178l416 -1044h2l417 1044h177v-1194h-117v991l6 64h-6l-424 -1055h-109l-424 1055h-4l4 -64v-991h-116z" />
<glyph unicode="n" horiz-adv-x="1144" d="M117 0v1194h143l660 -1040q0 27 -2 79v78v883h110v-1194h-145l-658 1036q4 -45 4 -127v-909h-112z" />
<glyph unicode="o" horiz-adv-x="1351" d="M55 606q0 250 184.5 431.5t434.5 181.5q254 0 438 -180.5t184 -432.5q0 -264 -180 -446.5t-444 -182.5t-440.5 181.5t-176.5 447.5zM176 604q0 -217 143.5 -368.5t360.5 -151.5q213 0 354.5 153.5t141.5 368.5q0 207 -148.5 355.5t-355.5 148.5q-201 0 -348.5 -151.5 t-147.5 -354.5z" />
<glyph unicode="p" horiz-adv-x="880" d="M117 0v1194h297q416 0 415 -342q0 -176 -118 -266q-104 -78 -287 -78h-188v-508h-119zM236 612h178q289 0 288 236q0 242 -299 242h-167v-478z" />
<glyph unicode="q" horiz-adv-x="1351" d="M55 606q0 250 184.5 431.5t434.5 181.5q254 0 438 -180.5t184 -432.5q0 -332 -266 -516l266 10v-123l-452 23q-23 -6 -51 -12q-55 -10 -121 -11q-264 0 -440.5 181.5t-176.5 447.5zM176 604q0 -217 143.5 -368.5t360.5 -151.5q213 0 354.5 153.5t141.5 368.5 q0 207 -148.5 355.5t-355.5 148.5q-201 0 -348.5 -151.5t-147.5 -354.5z" />
<glyph unicode="r" horiz-adv-x="876" d="M117 0v1194h297q416 0 415 -342q0 -168 -112 -252q-100 -76 -275 -76l394 -524h-142l-444 612q231 0 297 19q156 43 155 215q0 137 -84 194q-70 49 -215 50h-167v-1090h-119z" />
<glyph unicode="s" horiz-adv-x="806" d="M57 342h115q0 -106 57 -178q61 -80 166 -80q109 0 169.5 73.5t60.5 184.5q0 129 -140 201q-127 59 -256 116q-139 82 -139 234q0 143 90 234.5t234 91.5q141 0 221 -91q74 -84 82 -227h-113q-23 209 -190 209q-90 0 -147.5 -60.5t-57.5 -150.5q0 -63 38 -106t140 -86 q137 -55 203 -97q121 -76 143 -161q12 -45 12 -107q0 -160 -97 -263.5t-255 -103.5q-154 0 -246 109q-90 102 -90 258z" />
<glyph unicode="t" horiz-adv-x="636" d="M14 1087v107h607v-107h-246v-1087h-119v1087h-242z" />
<glyph unicode="u" horiz-adv-x="999" d="M117 340v854h114v-842q0 -268 269 -268q270 0 270 268v842h115v-852q0 -174 -104.5 -270.5t-280.5 -96.5q-178 0 -280.5 94.5t-102.5 270.5z" />
<glyph unicode="v" horiz-adv-x="976" d="M-14 1194h120l381 -1016h2l381 1016h123l-458 -1194h-93z" />
<glyph unicode="w" horiz-adv-x="1505" d="M4 1194h123l289 -1016h4l289 1016h88l288 -1016h2l289 1016h123l-364 -1194h-97l-284 989h-2l-285 -989h-98z" />
<glyph unicode="x" horiz-adv-x="966" d="M-4 0l420 602l-412 592h150l331 -496l332 496h146l-410 -592l420 -602h-150l-338 508l-344 -508h-145z" />
<glyph unicode="y" horiz-adv-x="890" d="M0 1194h135l309 -580l314 580h133l-389 -717v-477h-115v477z" />
<glyph unicode="z" horiz-adv-x="778" d="M33 0v113l565 968h-532v113h667v-113l-565 -964h580v-117h-715z" />
<glyph unicode="{" horiz-adv-x="1036" d="M211 489v107q152 0 209 65.5t57 221.5v245q0 221 66 297q49 57 153 74q49 8 174 8v-108q-176 0 -221 -54.5t-45 -230.5v-94q2 -63 2 -96q0 -182 -39 -264t-164 -119q125 -35 170 -131q31 -70 31 -220v-247q0 -143 41 -200.5t225 -57.5v-109h-49q-209 0 -276.5 80 t-67.5 299v250q0 152 -55 217q-61 67 -211 67z" />
<glyph unicode="|" d="M461 -461v1954h102v-1954h-102z" />
<glyph unicode="}" horiz-adv-x="1036" d="M166 -315q186 0 226 56t40 202v247q0 150 31 220q45 96 170 131q-123 37 -162 119.5t-39 273.5v86q2 57 2 84q0 186 -46 240.5t-222 54.5v108h49q209 0 281 -82q63 -74 63 -297v-245q0 -156 57.5 -221.5t208.5 -65.5v-107q-150 0 -208 -66.5t-58 -217.5v-250 q0 -150 -22 -217q-35 -113 -146 -144q-66 -18 -225 -18v109z" />
<glyph unicode="~" horiz-adv-x="1157" d="M55 449v143q162 186 299 186q86 0 227.5 -89t217.5 -89q127 0 301 203v-150q-150 -176 -301 -176q-86 0 -227.5 88t-217.5 88q-121 1 -299 -204z" />
<glyph unicode="&#xa4;" horiz-adv-x="1157" d="M68 403l196 199q-86 115 -86 248q0 131 86 250l-196 196l63 62l197 -197q113 88 250 88q139 0 251 -88l197 197l61 -62l-196 -196q86 -119 86 -250q0 -133 -86 -248l196 -199l-61 -63l-197 197q-113 -86 -251 -86q-135 0 -250 86l-197 -197zM266 852q0 -129 92.5 -221 t221.5 -92t219 92t90 221q0 127 -91 217t-218 90t-220.5 -90t-93.5 -217z" />
<glyph unicode="&#xa6;" d="M459 -369v799h108v-799h-108zM459 676v799h108v-799h-108z" />
<glyph unicode="&#xa7;" d="M109 770q0 193 198 297q-104 78 -104 207q0 131 90 209t223 78q147 0 230 -83t83 -231v-24h-129q0 219 -196 219q-74 0 -118 -45t-44 -119q0 -109 147 -203q137 -82 275 -166q147 -111 147 -262q0 -178 -194 -280q106 -94 106 -228q0 -131 -100 -209q-90 -74 -225 -73 q-147 0 -238.5 85t-91.5 230v31h139q0 -223 195 -223q82 0 132 43t50 122q0 72 -41 119q-49 57 -201 146q-168 96 -225 149q-108 96 -108 211zM248 805q0 -111 143 -203l248 -158q127 84 127 191q0 117 -156 213l-221 137q-141 -57 -141 -180z" />
<glyph unicode="&#xa9;" horiz-adv-x="1705" d="M121 723q0 301 219 522q209 211 512 211q307 0 520 -213t213 -520t-211 -514q-223 -219 -522 -219q-301 0 -516 216t-215 517zM201 723q0 -266 192.5 -458.5t458.5 -192.5q268 0 467 194q186 182 186 457q0 274 -190.5 463.5t-462.5 189.5q-270 0 -460.5 -191.5 t-190.5 -461.5zM469 727q0 190 98 315q106 133 293 134q129 0 219 -66q98 -72 111 -195h-117q-39 168 -217 168q-139 0 -205 -118q-53 -94 -53 -244q0 -145 55 -240q68 -115 203 -114q90 0 151.5 50t77.5 138h115q-10 -133 -111.5 -209t-238.5 -76q-190 0 -291 138 q-90 120 -90 319z" />
<glyph unicode="&#xaa;" horiz-adv-x="997" d="M-20 0l471 1194h96l471 -1194h-123l-152 389h-489l-152 -389h-122zM295 494h410l-205 522h-2z" />
<glyph unicode="&#xab;" horiz-adv-x="933" d="M115 549l245 321h138l-248 -321l248 -320h-138zM418 549l246 321h137l-246 -321l246 -320h-137z" />
<glyph unicode="&#xac;" horiz-adv-x="1705" d="M254 758v100h1198v-502h-96v402h-1102z" />
<glyph unicode="&#xad;" horiz-adv-x="659" d="M94 492v129h469v-129h-469z" />
<glyph unicode="&#xae;" horiz-adv-x="1705" d="M121 723q0 301 219 522q209 211 512 211q307 0 520 -213t213 -520t-211 -514q-223 -219 -522 -219q-301 0 -516 216t-215 517zM201 723q0 -266 192.5 -458.5t458.5 -192.5t467 194q186 182 186 455q0 276 -188.5 465.5t-464.5 189.5q-268 0 -459.5 -192.5t-191.5 -460.5z M565 313v844h309q348 0 349 -233q0 -90 -54.5 -149.5t-144.5 -72.5l188 -389h-145l-178 371h-197v-371h-127zM692 768h158q111 0 162 20q80 33 80 127q0 156 -242 156h-158v-303z" />
<glyph unicode="&#xb0;" horiz-adv-x="673" d="M59 1174q0 117 81 197.5t198 80.5q115 0 195.5 -82t80.5 -196q0 -115 -81.5 -197t-196.5 -82q-117 0 -197 81t-80 198zM129 1174q0 -88 60.5 -147.5t148.5 -59.5t147.5 59t59.5 148q0 86 -60.5 147t-146.5 61t-147.5 -61t-61.5 -147z" />
<glyph unicode="&#xb1;" horiz-adv-x="1705" d="M254 51v99h1198v-99h-1198zM254 723v98h551v348h98v-348h549v-98h-549v-348h-98v348h-551z" />
<glyph unicode="&#xb2;" horiz-adv-x="1161" d="M133 0v131l518 496q123 117 168 178q80 113 80 225q0 154 -78 242q-84 92 -235 92q-150 0 -234 -113q-76 -100 -76 -254v-26h-143v20q0 221 127 364.5t346 143.5q209 0 323.5 -129t114.5 -340q0 -219 -229 -434l-496 -465h725v-131h-911z" />
<glyph unicode="&#xb3;" horiz-adv-x="1157" d="M109 436h145q0 -340 311 -340q145 0 241.5 96.5t96.5 239.5q0 408 -356 408q-55 0 -131 -23l-56 80l433 449h-596v129h766v-129l-388 -390q233 0 354.5 -137t121.5 -373q0 -201 -138.5 -338t-339.5 -137q-219 0 -341.5 123t-122.5 342z" />
<glyph unicode="&#xb5;" horiz-adv-x="1110" d="M-111 -426l316 1491h139l-125 -592q-16 -78 -16 -139q0 -244 225 -244q258 0 348 418l121 557h139l-164 -770q-23 -106 -22 -133q0 -72 68 -72q41 0 92 14l-35 -104q-80 -25 -127 -25q-137 0 -137 162q-88 -162 -299 -162q-188 0 -269 156l-114 -557h-140z" />
<glyph unicode="&#x3bc;" horiz-adv-x="1110" d="M-111 -426l316 1491h139l-125 -592q-16 -78 -16 -139q0 -244 225 -244q258 0 348 418l121 557h139l-164 -770q-23 -106 -22 -133q0 -72 68 -72q41 0 92 14l-35 -104q-80 -25 -127 -25q-137 0 -137 162q-88 -162 -299 -162q-188 0 -269 156l-114 -557h-140z" />
<glyph unicode="&#xb6;" d="M84 1130q0 166 117 261q106 88 276 88h463v-70h-127v-1409h-82v1409h-188v-1409h-82v782q-164 8 -266 95q-111 93 -111 253z" />
<glyph unicode="&#xb7;" horiz-adv-x="577" d="M197 637v186h186v-186h-186z" />
<glyph unicode="&#x2219;" horiz-adv-x="577" d="M197 637v186h186v-186h-186z" />
<glyph unicode="&#xb9;" horiz-adv-x="1153" d="M229 0v125h297v1206h-231v125h375v-1331h278v-125h-719z" />
<glyph unicode="&#xba;" horiz-adv-x="1351" d="M55 606q0 250 184.5 431.5t434.5 181.5q254 0 438 -180.5t184 -432.5q0 -264 -180 -446.5t-444 -182.5t-440.5 181.5t-176.5 447.5zM176 604q0 -217 143.5 -368.5t360.5 -151.5q213 0 354.5 153.5t141.5 368.5q0 207 -148.5 355.5t-355.5 148.5q-201 0 -348.5 -151.5 t-147.5 -354.5z" />
<glyph unicode="&#xbb;" horiz-adv-x="933" d="M133 229l248 320l-248 321h137l246 -321l-246 -320h-137zM438 229l246 320l-246 321h135l248 -321l-248 -320h-135z" />
<glyph unicode="&#xc0;" horiz-adv-x="1216" d="M309 1960h144l200 -334h-88zM-25 0l574 1475h119l573 -1475h-149l-185 479h-598l-184 -479h-150zM358 608h500l-248 645h-4z" />
<glyph unicode="&#xc2;" horiz-adv-x="1216" d="M178 1626l362 379h140l360 -379h-154l-276 276l-279 -276h-153zM-25 0l574 1475h119l573 -1475h-149l-185 479h-598l-184 -479h-150zM358 608h500l-248 645h-4z" />
<glyph unicode="&#xc3;" horiz-adv-x="1216" d="M86 1627v143q162 186 299 186q86 0 227.5 -89t217.5 -89q127 0 301 203v-150q-150 -176 -301 -176q-86 0 -227.5 88t-217.5 88q-121 1 -299 -204zM-25 0l574 1475h119l573 -1475h-149l-185 479h-598l-184 -479h-150zM358 608h500l-248 645h-4z" />
<glyph unicode="&#xc5;" horiz-adv-x="1216" d="M329 1764q0 117 81 197.5t198 80.5q115 0 195.5 -82t80.5 -196q0 -115 -81.5 -197t-196.5 -82q-117 0 -197 81t-80 198zM399 1764q0 -88 60.5 -147.5t148.5 -59.5t147.5 59t59.5 148q0 86 -60.5 147t-146.5 61t-147.5 -61t-61.5 -147zM-25 0l574 1475h119l573 -1475h-149 l-185 479h-598l-184 -479h-150zM358 608h500l-248 645h-4z" />
<glyph unicode="&#xc8;" d="M225 1960h144l200 -334h-88zM143 0v1475h764v-129h-622v-523h549v-129h-549v-565h622v-129h-764z" />
<glyph unicode="&#xca;" d="M94 1626l362 379h140l360 -379h-154l-276 276l-279 -276h-153zM143 0v1475h764v-129h-622v-523h549v-129h-549v-565h622v-129h-764z" />
<glyph unicode="&#xcc;" horiz-adv-x="440" d="M-80 1960h144l200 -334h-88zM150 0v1475h141v-1475h-141z" />
<glyph unicode="&#xce;" horiz-adv-x="440" d="M-211 1626l362 379h140l360 -379h-154l-276 276l-279 -276h-153zM150 0v1475h141v-1475h-141z" />
<glyph unicode="&#xd1;" horiz-adv-x="1396" d="M176 1627v143q162 186 299 186q86 0 227.5 -89t217.5 -89q127 0 301 203v-150q-150 -176 -301 -176q-86 0 -227.5 88t-217.5 88q-121 1 -299 -204zM143 0v1475h174l805 -1285q-4 53 -4 193v1092h135v-1475h-176l-803 1280q4 -57 5 -152v-1128h-136z" />
<glyph unicode="&#xd2;" horiz-adv-x="1648" d="M522 1960h144l200 -334h-88zM68 748q0 307 223 531t530 224q313 0 536.5 -222t223.5 -533q0 -324 -219 -550.5t-543 -226.5t-537.5 225.5t-213.5 551.5zM215 745q0 -268 174 -454.5t440 -186.5q262 0 437 193q168 188 168 453q0 254 -180.5 437t-434.5 183 q-246 0 -425 -188.5t-179 -436.5z" />
<glyph unicode="&#xd4;" horiz-adv-x="1648" d="M391 1626l362 379h140l360 -379h-154l-276 276l-279 -276h-153zM68 748q0 307 223 531t530 224q313 0 536.5 -222t223.5 -533q0 -324 -219 -550.5t-543 -226.5t-537.5 225.5t-213.5 551.5zM215 745q0 -268 174 -454.5t440 -186.5q262 0 437 193q168 188 168 453 q0 254 -180.5 437t-434.5 183q-246 0 -425 -188.5t-179 -436.5z" />
<glyph unicode="&#xd5;" horiz-adv-x="1648" d="M299 1627v143q162 186 299 186q86 0 227.5 -89t217.5 -89q127 0 301 203v-150q-150 -176 -301 -176q-86 0 -227.5 88t-217.5 88q-121 1 -299 -204zM68 748q0 307 223 531t530 224q313 0 536.5 -222t223.5 -533q0 -324 -219 -550.5t-543 -226.5t-537.5 225.5t-213.5 551.5 zM215 745q0 -268 174 -454.5t440 -186.5q262 0 437 193q168 188 168 453q0 254 -180.5 437t-434.5 183q-246 0 -425 -188.5t-179 -436.5z" />
<glyph unicode="&#xd9;" horiz-adv-x="1218" d="M309 1960h144l200 -334h-88zM141 420v1055h142v-1041q0 -170 78.5 -250t248.5 -80t249 80t79 250v1041h141v-1053q0 -213 -127 -333t-342 -120q-217 0 -343 118t-126 333z" />
<glyph unicode="&#xdb;" horiz-adv-x="1218" d="M178 1626l362 379h140l360 -379h-154l-276 276l-279 -276h-153zM141 420v1055h142v-1041q0 -170 78.5 -250t248.5 -80t249 80t79 250v1041h141v-1053q0 -213 -127 -333t-342 -120q-217 0 -343 118t-126 333z" />
<glyph unicode="&#xe0;" horiz-adv-x="997" d="M198 1676h144l200 -334h-88zM-20 0l471 1194h96l471 -1194h-123l-152 389h-489l-152 -389h-122zM295 494h410l-205 522h-2z" />
<glyph unicode="&#xe2;" horiz-adv-x="997" d="M68 1342l362 379h140l360 -379h-154l-276 276l-279 -276h-153zM-20 0l471 1194h96l471 -1194h-123l-152 389h-489l-152 -389h-122zM295 494h410l-205 522h-2z" />
<glyph unicode="&#xe3;" horiz-adv-x="997" d="M-23 1342v143q162 186 299 186q86 0 227.5 -89t217.5 -89q127 0 301 203v-150q-150 -176 -301 -176q-86 0 -227.5 88t-217.5 88q-121 1 -299 -204zM-20 0l471 1194h96l471 -1194h-123l-152 389h-489l-152 -389h-122zM295 494h410l-205 522h-2z" />
<glyph unicode="&#xe5;" horiz-adv-x="997" d="M221 1620q0 117 81 197.5t198 80.5q115 0 195.5 -82t80.5 -196q0 -115 -81.5 -197t-196.5 -82q-117 0 -197 81t-80 198zM291 1620q0 -88 60.5 -147.5t148.5 -59.5t147.5 59t59.5 148q0 86 -60.5 147t-146.5 61t-147.5 -61t-61.5 -147zM-20 0l471 1194h96l471 -1194h-123 l-152 389h-489l-152 -389h-122zM295 494h410l-205 522h-2z" />
<glyph unicode="&#xe8;" horiz-adv-x="839" d="M129 1676h144l200 -334h-88zM117 0v1194h626v-104h-510v-422h451v-105h-451v-459h510v-104h-626z" />
<glyph unicode="&#xea;" horiz-adv-x="839" d="M-2 1342l362 379h140l360 -379h-154l-276 276l-279 -276h-153zM117 0v1194h626v-104h-510v-422h451v-105h-451v-459h510v-104h-626z" />
<glyph unicode="&#xec;" horiz-adv-x="360" d="M-121 1676h144l200 -334h-88zM123 0v1194h115v-1194h-115z" />
<glyph unicode="&#xee;" horiz-adv-x="360" d="M-252 1342l362 379h140l360 -379h-154l-276 276l-279 -276h-153zM123 0v1194h115v-1194h-115z" />
<glyph unicode="&#xf1;" horiz-adv-x="1144" d="M51 1342v143q162 186 299 186q86 0 227.5 -89t217.5 -89q127 0 301 203v-150q-150 -176 -301 -176q-86 0 -227.5 88t-217.5 88q-121 1 -299 -204zM117 0v1194h143l660 -1040q0 27 -2 79v78v883h110v-1194h-145l-658 1036q4 -45 4 -127v-909h-112z" />
<glyph unicode="&#xf2;" horiz-adv-x="1351" d="M375 1676h144l200 -334h-88zM55 606q0 250 184.5 431.5t434.5 181.5q254 0 438 -180.5t184 -432.5q0 -264 -180 -446.5t-444 -182.5t-440.5 181.5t-176.5 447.5zM176 604q0 -217 143.5 -368.5t360.5 -151.5q213 0 354.5 153.5t141.5 368.5q0 207 -148.5 355.5 t-355.5 148.5q-201 0 -348.5 -151.5t-147.5 -354.5z" />
<glyph unicode="&#xf4;" horiz-adv-x="1351" d="M244 1342l362 379h140l360 -379h-154l-276 276l-279 -276h-153zM55 606q0 250 184.5 431.5t434.5 181.5q254 0 438 -180.5t184 -432.5q0 -264 -180 -446.5t-444 -182.5t-440.5 181.5t-176.5 447.5zM176 604q0 -217 143.5 -368.5t360.5 -151.5q213 0 354.5 153.5 t141.5 368.5q0 207 -148.5 355.5t-355.5 148.5q-201 0 -348.5 -151.5t-147.5 -354.5z" />
<glyph unicode="&#xf5;" horiz-adv-x="1351" d="M151 1342v143q162 186 299 186q86 0 227.5 -89t217.5 -89q127 0 301 203v-150q-150 -176 -301 -176q-86 0 -227.5 88t-217.5 88q-121 1 -299 -204zM55 606q0 250 184.5 431.5t434.5 181.5q254 0 438 -180.5t184 -432.5q0 -264 -180 -446.5t-444 -182.5t-440.5 181.5 t-176.5 447.5zM176 604q0 -217 143.5 -368.5t360.5 -151.5q213 0 354.5 153.5t141.5 368.5q0 207 -148.5 355.5t-355.5 148.5q-201 0 -348.5 -151.5t-147.5 -354.5z" />
<glyph unicode="&#xf9;" horiz-adv-x="999" d="M201 1676h144l200 -334h-88zM117 340v854h114v-842q0 -268 269 -268q270 0 270 268v842h115v-852q0 -174 -104.5 -270.5t-280.5 -96.5q-178 0 -280.5 94.5t-102.5 270.5z" />
<glyph unicode="&#xfb;" horiz-adv-x="999" d="M70 1342l362 379h140l360 -379h-154l-276 276l-279 -276h-153zM117 340v854h114v-842q0 -268 269 -268q270 0 270 268v842h115v-852q0 -174 -104.5 -270.5t-280.5 -96.5q-178 0 -280.5 94.5t-102.5 270.5z" />
<glyph unicode="&#x152;" horiz-adv-x="2672" d="M1792 0v1475h764v-129h-622v-523h549v-129h-549v-565h622v-129h-764zM68 748q0 307 223 531t530 224q313 0 536.5 -222t223.5 -533q0 -324 -219 -550.5t-543 -226.5t-537.5 225.5t-213.5 551.5zM215 745q0 -268 174 -454.5t440 -186.5q262 0 437 193q168 188 168 453 q0 254 -180.5 437t-434.5 183q-246 0 -425 -188.5t-179 -436.5z" />
<glyph unicode="&#x153;" horiz-adv-x="2191" d="M1469 0v1194h626v-104h-510v-422h451v-105h-451v-459h510v-104h-626zM55 606q0 250 184.5 431.5t434.5 181.5q254 0 438 -180.5t184 -432.5q0 -264 -180 -446.5t-444 -182.5t-440.5 181.5t-176.5 447.5zM176 604q0 -217 143.5 -368.5t360.5 -151.5q213 0 354.5 153.5 t141.5 368.5q0 207 -148.5 355.5t-355.5 148.5q-201 0 -348.5 -151.5t-147.5 -354.5z" />
<glyph unicode="&#x2c6;" d="M80 1096l362 379h140l360 -379h-154l-276 276l-279 -276h-153z" />
<glyph unicode="&#x2dc;" horiz-adv-x="811" d="M-523 123v143q162 186 299 186q86 0 227.5 -89t217.5 -89q127 0 301 203v-150q-150 -176 -301 -176q-86 0 -227.5 88t-217.5 88q-121 1 -299 -204z" />
<glyph unicode="&#x2000;" horiz-adv-x="1019" />
<glyph unicode="&#x2001;" horiz-adv-x="2041" />
<glyph unicode="&#x2002;" horiz-adv-x="1019" />
<glyph unicode="&#x2003;" horiz-adv-x="2041" />
<glyph unicode="&#x2004;" horiz-adv-x="679" />
<glyph unicode="&#x2005;" horiz-adv-x="509" />
<glyph unicode="&#x2006;" horiz-adv-x="339" />
<glyph unicode="&#x2007;" horiz-adv-x="339" />
<glyph unicode="&#x2008;" horiz-adv-x="253" />
<glyph unicode="&#x2009;" horiz-adv-x="407" />
<glyph unicode="&#x200a;" horiz-adv-x="112" />
<glyph unicode="&#x2010;" horiz-adv-x="659" d="M94 492v129h469v-129h-469z" />
<glyph unicode="&#x2011;" horiz-adv-x="659" d="M94 492v129h469v-129h-469z" />
<glyph unicode="&#x2012;" horiz-adv-x="659" d="M94 492v129h469v-129h-469z" />
<glyph unicode="&#x2013;" d="M-12 492v112h1048v-112h-1048z" />
<glyph unicode="&#x2014;" horiz-adv-x="2048" d="M-12 492v112h2072v-112h-2072z" />
<glyph unicode="&#x2018;" horiz-adv-x="397" d="M45 1475h141l156 -426h-143z" />
<glyph unicode="&#x2019;" horiz-adv-x="397" d="M90 1049l154 426h143l-156 -426h-141z" />
<glyph unicode="&#x201a;" horiz-adv-x="397" d="M25 -162l153 428h144l-156 -428h-141z" />
<glyph unicode="&#x201c;" horiz-adv-x="692" d="M45 1475h141l156 -426h-143zM338 1475h143l154 -426h-141z" />
<glyph unicode="&#x201d;" horiz-adv-x="692" d="M90 1049l154 426h143l-156 -426h-141zM383 1049l156 426h141l-154 -426h-143z" />
<glyph unicode="&#x201e;" horiz-adv-x="692" d="M25 -162l153 428h144l-156 -428h-141zM317 -162l156 428h141l-153 -428h-144z" />
<glyph unicode="&#x2022;" horiz-adv-x="1208" d="M307 762q0 123 87 209t210 86t209 -86t86 -209t-87 -210t-210 -87t-209 87t-86 210z" />
<glyph unicode="&#x2026;" horiz-adv-x="2048" d="M270 0v266h144v-266h-144zM952 0v266h144v-266h-144zM1636 0v266h144v-266h-144z" />
<glyph unicode="&#x202f;" horiz-adv-x="407" />
<glyph unicode="&#x2039;" horiz-adv-x="630" d="M115 549l245 321h138l-248 -321l248 -320h-138z" />
<glyph unicode="&#x203a;" horiz-adv-x="630" d="M133 229l248 320l-248 321h137l246 -321l-246 -320h-137z" />
<glyph unicode="&#x205f;" horiz-adv-x="509" />
<glyph unicode="&#x2122;" horiz-adv-x="1705" d="M160 1405v70h516v-70h-207v-567h-98v567h-211zM827 838v637h142l198 -506l187 506h139v-637h-86v561l-211 -561h-59l-224 561v-561h-86z" />
<glyph unicode="&#xe000;" horiz-adv-x="1195" d="M0 1195h1195v-1195h-1195v1195z" />
<glyph unicode="&#xfb01;" horiz-adv-x="1144" d="M907 0v1194h115v-1194h-115zM117 0v1194h596v-104h-480v-428h406v-105h-406v-557h-116z" />
<glyph unicode="&#xfb02;" horiz-adv-x="1490" d="M905 0v1194h117v-1088h428v-106h-545zM117 0v1194h596v-104h-480v-428h406v-105h-406v-557h-116z" />
<glyph unicode="&#xfb03;" horiz-adv-x="1929" d="M1692 0v1194h115v-1194h-115zM901 0v1194h596v-104h-480v-428h406v-105h-406v-557h-116zM117 0v1194h596v-104h-480v-428h406v-105h-406v-557h-116z" />
<glyph unicode="&#xfb04;" horiz-adv-x="2275" d="M1690 0v1194h117v-1088h428v-106h-545zM901 0v1194h596v-104h-480v-428h406v-105h-406v-557h-116zM117 0v1194h596v-104h-480v-428h406v-105h-406v-557h-116z" />
</font>
</defs>
</svg>
