<?xml version="1.0" standalone="no"?>
<!DOCTYPE svg PUBLIC "-//W3C//DTD SVG 1.1//EN" "http://www.w3.org/Graphics/SVG/1.1/DTD/svg11.dtd" >
<svg xmlns="http://www.w3.org/2000/svg">
<metadata>
This is a custom SVG webfont generated by Font Squirrel.
Copyright   : aAvanteTitlerCapsUpC Arsenal Company 1997 FAX 0959243775 eMail arsenalitcomsksu Phone 0959245811 Design and Featuring WChufarofsky  MSlutsker
</metadata>
<defs>
<font id="aAvanteTitlerCpsUpCBold" horiz-adv-x="1210" >
<font-face units-per-em="2048" ascent="1638" descent="-410" />
<missing-glyph horiz-adv-x="843" />
<glyph unicode=" "  horiz-adv-x="843" />
<glyph unicode="&#x09;" horiz-adv-x="843" />
<glyph unicode="&#xa0;" horiz-adv-x="843" />
<glyph unicode="!" horiz-adv-x="634" d="M180 426v1049h275v-1049h-275zM184 0v287h267v-287h-267z" />
<glyph unicode="&#x22;" horiz-adv-x="772" d="M80 1464h244l-35 -577h-174zM449 1464h243l-35 -577h-174z" />
<glyph unicode="#" horiz-adv-x="1413" d="M76 446l41 185h258l57 205h-268l41 184h268l105 389h196l-104 -389h207l104 389h199l-105 -389h264l-41 -184h-264l-57 -205h274l-41 -185h-276l-105 -403h-198l106 403h-209l-104 -403h-197l103 403h-254zM571 631h209l58 205h-209z" />
<glyph unicode="$" d="M147 442h265q0 -193 186 -192q80 0 125 53t45 133q0 106 -143 176q-61 29 -152 64q-297 119 -297 368q0 150 85 255.5t231 140.5v209h229v-209q156 -43 225 -154q57 -94 58 -221h-252q-10 158 -152 158q-68 0 -113 -35t-45 -101q0 -78 93 -145q43 -33 157 -88 q190 -92 268 -182t78 -219q0 -162 -77 -273q-84 -117 -240 -147v-232h-229v226q-166 31 -255.5 139t-89.5 276z" />
<glyph unicode="%" horiz-adv-x="1765" d="M78 1145q0 147 106.5 253.5t253.5 106.5q150 0 256.5 -106.5t106.5 -253.5q0 -150 -106.5 -254.5t-256.5 -104.5t-255 106t-105 253zM266 1145q0 -72 49.5 -119t120.5 -47q72 0 120 47t48 119t-48 120t-120 48t-121 -48t-49 -120zM436 -16l701 1505h188l-700 -1505h-189z M967 332q0 152 106.5 256t255.5 104q154 0 257.5 -104.5t103.5 -255.5q0 -147 -106.5 -254t-254.5 -107q-152 0 -257 105.5t-105 255.5zM1157 332q0 -70 50 -120t120 -50t118 50t48 120t-48 119t-118 49q-72 0 -121 -48t-49 -120z" />
<glyph unicode="&#x26;" horiz-adv-x="1474" d="M117 406q0 238 274 413q-154 127 -153 303q0 164 110.5 270.5t272.5 106.5q154 0 259 -105.5t105 -256.5q0 -182 -219 -328l199 -193q68 137 125 304h282q-57 -166 -160 -381q-29 -61 -53 -107l273 -260l-177 -182l-239 223q-168 -242 -432 -242q-190 0 -328.5 124.5 t-138.5 310.5zM401 424q0 -84 55.5 -137.5t139.5 -53.5q137 0 233 158q-94 84 -268 262q-160 -100 -160 -229zM498 1143q0 -102 106 -185q131 88 131 187q0 53 -31.5 88t-85.5 35q-53 0 -86.5 -36t-33.5 -89z" />
<glyph unicode="'" horiz-adv-x="401" d="M80 1464h242l-35 -577h-172z" />
<glyph unicode="(" horiz-adv-x="729" d="M180 205v688q0 457 459 637v-303q-121 -53 -158 -140q-29 -68 -28 -227v-602q0 -131 8 -178q16 -98 76 -158q37 -39 102 -74v-294q-256 100 -360 253q-99 148 -99 398z" />
<glyph unicode=")" horiz-adv-x="729" d="M90 -152q123 66 160 162q27 68 26 248v602q0 160 -28 227q-37 86 -158 140v303q459 -180 459 -637v-688q0 -250 -98 -398q-104 -154 -361 -253v294z" />
<glyph unicode="*" horiz-adv-x="1185" d="M166 1090l65 192l269 -96l-4 289h194l-4 -289l270 96l66 -192l-281 -78l183 -234l-162 -119l-168 246l-168 -246l-164 119l182 234z" />
<glyph unicode="+" horiz-adv-x="1462" d="M178 446v232h438v442h232v-442h438v-232h-438v-446h-232v446h-438z" />
<glyph unicode="," horiz-adv-x="610" d="M170 0v289h272v-324q0 -125 -73.5 -189.5t-198.5 -64.5v154q72 0 94 33q18 27 19 102h-113z" />
<glyph unicode="-" horiz-adv-x="622" d="M47 485v256h531v-256h-531z" />
<glyph unicode="." horiz-adv-x="610" d="M168 0v295h272v-295h-272z" />
<glyph unicode="/" horiz-adv-x="878" d="M45 -195l504 1684h272l-504 -1684h-272z" />
<glyph unicode="0" d="M78 512v451q0 238 151 391q145 150 377 149q233 0 380 -152.5t147 -383.5v-457q0 -240 -149.5 -389.5t-377.5 -149.5q-236 0 -382 154t-146 387zM375 483q0 -109 61.5 -176t167.5 -67q227 0 227 274v449q0 272 -227 272q-229 0 -229 -272v-480z" />
<glyph unicode="1" d="M240 0v264h211v965h-170v246h467v-1211h208v-264h-716z" />
<glyph unicode="2" d="M111 0v250q74 76 208 186q168 137 218 182q270 246 270 414q0 88 -55.5 146.5t-143.5 58.5q-172 0 -207 -168q-10 -49 -10 -104h-280v4q0 250 130 392t375 142q203 0 343.5 -132t140.5 -331q0 -238 -226 -467q-59 -61 -178 -155q-127 -100 -178 -152h582v-266h-989z" />
<glyph unicode="3" d="M78 477h297q0 -104 53 -167.5t156 -63.5q104 0 169.5 63.5t65.5 167.5q0 141 -57 206t-197 65q-12 0 -155 -29l-117 170l340 319h-467v267h868v-254l-276 -244q199 -51 291 -197q70 -111 69 -280q0 -238 -139 -381q-145 -147 -387 -148q-223 0 -361 123 q-153 133 -153 383z" />
<glyph unicode="4" d="M61 258v234l654 983h276v-975h158v-242h-158v-258h-270v258h-660zM352 500h369v598z" />
<glyph unicode="5" d="M66 424h294q18 -80 84 -131t148 -51q109 0 182.5 74.5t73.5 183.5q0 115 -71.5 183.5t-186.5 68.5q-152 0 -221 -129l-244 57l133 795h750v-263h-529l-53 -274q86 68 225 68q211 0 352.5 -146.5t141.5 -353.5q0 -233 -161 -384t-392 -151q-215 0 -356 120t-170 333z" />
<glyph unicode="6" d="M61 510q0 156 177 444q115 172 346 521h336q-117 -160 -342 -486q51 18 139 19q190 0 315 -160q117 -145 117 -340q0 -227 -160 -382t-385 -155q-236 0 -389.5 154t-153.5 385zM348 508q0 -109 72 -187.5t178 -78.5q115 0 185.5 72.5t70.5 187.5q0 109 -72.5 181.5 t-181.5 72.5q-104 0 -178 -72t-74 -176z" />
<glyph unicode="7" d="M164 1214v261h895v-256l-529 -1219h-319l553 1214h-600z" />
<glyph unicode="8" d="M104 440q0 268 226 375q-147 106 -148 285q0 174 123 288.5t297 114.5q279 0 391 -237q35 -74 35 -162q0 -184 -154 -289q227 -98 228 -369q0 -207 -147.5 -341t-352.5 -134q-199 0 -348.5 137t-149.5 332zM395 459q0 -92 58.5 -156.5t150.5 -64.5t150.5 63.5t58.5 155.5 q0 96 -56.5 157.5t-152.5 61.5q-94 0 -151.5 -61.5t-57.5 -155.5zM444 1087q0 -74 43 -120.5t117 -46.5q72 0 117 48t45 119q0 70 -44 118t-114 48q-72 0 -118 -47t-46 -119z" />
<glyph unicode="9" d="M66 967q0 227 159.5 381.5t384.5 154.5q236 0 389.5 -153.5t153.5 -384.5q0 -156 -174 -443q-117 -174 -348 -522h-336q117 160 342 485q-51 -18 -139 -18q-190 0 -316 160q-116 145 -116 340zM360 973q0 -109 73 -181.5t181 -72.5q104 0 178 71.5t74 176.5 q0 109 -71.5 187.5t-178.5 78.5q-113 0 -184.5 -73.5t-71.5 -186.5z" />
<glyph unicode=":" horiz-adv-x="614" d="M170 0v295h272v-295h-272zM170 766v295h272v-295h-272z" />
<glyph unicode=";" horiz-adv-x="614" d="M170 0v289h274v-326q0 -252 -272 -252v154q78 6 96 33q16 20 17 102h-115zM170 766v295h272v-295h-272z" />
<glyph unicode="&#x3c;" horiz-adv-x="1462" d="M180 453v221l1104 456v-253l-835 -314l835 -315v-250z" />
<glyph unicode="=" horiz-adv-x="1462" d="M178 217v229h1108v-229h-1108zM178 680v229h1108v-229h-1108z" />
<glyph unicode="&#x3e;" horiz-adv-x="1462" d="M180 -2v250l834 315l-834 314v253l1104 -456v-221z" />
<glyph unicode="?" horiz-adv-x="1095" d="M61 1010v32q0 201 144 334q137 127 338 127q203 0 325 -110q131 -115 131 -314q0 -135 -100 -254q-92 -102 -182 -202q-76 -100 -76 -195h-276q0 213 213 408q125 113 124 219q0 180 -178 180q-180 0 -180 -225h-283zM365 0v289h266v-289h-266z" />
<glyph unicode="@" horiz-adv-x="2074" d="M106 528q0 340 205 590q301 367 819 367q346 0 572 -174q266 -205 266 -520q0 -360 -250 -560q-145 -115 -321 -114q-201 0 -201 159v19q-111 -174 -305 -174q-319 0 -320 338q0 162 72 295q76 143 213 215q88 47 199 47q172 0 245 -152l58 117h133l-145 -584 q-8 -33 -9 -59q0 -94 101 -94q104 0 211 102q172 164 172 426q0 281 -209 440q-195 150 -490 150q-242 0 -440 -107q-205 -109 -322 -313q-106 -188 -106 -416q0 -352 256 -544q215 -162 530 -162q350 0 629 192l57 -84q-299 -223 -673 -223q-389 0 -635 189 q-312 239 -312 634zM733 453q0 -221 191 -222q104 0 182 76q72 68 98 174l60 240q-35 186 -199 186q-119 0 -205 -92q-76 -82 -106 -205q-21 -81 -21 -157z" />
<glyph unicode="A" horiz-adv-x="1380" d="M-18 0l583 1475h252l582 -1475h-320l-116 319h-547l-119 -319h-315zM506 569h368l-182 543z" />
<glyph unicode="B" horiz-adv-x="1181" d="M131 0v1475h432q211 0 334 -89q141 -102 141 -303q0 -199 -166 -290q117 -37 180.5 -127.5t63.5 -212.5q0 -238 -158 -353q-139 -100 -385 -100h-442zM416 266h176q236 0 235 185q0 195 -231 194h-180v-379zM418 877h106q225 0 226 176q0 158 -201 157h-131v-333z" />
<glyph unicode="C" horiz-adv-x="1601" d="M68 743q0 322 222 541t541 219q250 0 438.5 -133t264.5 -364h-324q-131 225 -381 225q-199 0 -330.5 -143.5t-131.5 -342.5q0 -150 72.5 -272.5t203.5 -185.5q86 -43 188 -43q252 0 375 217h328q-88 -227 -271.5 -358.5t-424.5 -131.5q-238 0 -428.5 126t-282.5 343 q-59 141 -59 303z" />
<glyph unicode="D" horiz-adv-x="1439" d="M115 0v1475h516q334 0 531.5 -202t197.5 -538q0 -340 -203 -534q-209 -201 -582 -201h-460zM408 266h206q219 0 335 122t116 343q0 223 -121 350t-342 127h-194v-942z" />
<glyph unicode="E" horiz-adv-x="1040" d="M131 0v1475h793v-263h-498v-333h492v-265h-492v-346h498v-268h-793z" />
<glyph unicode="F" horiz-adv-x="991" d="M129 0v1475h764v-263h-469v-346h463v-262h-463v-604h-295z" />
<glyph unicode="G" horiz-adv-x="1665" d="M66 745q0 236 129 424.5t348 276.5q141 57 301 57q233 0 424.5 -124t267.5 -337h-344q-129 188 -358 189q-199 0 -334 -142.5t-135 -340.5q0 -209 132 -357.5t337 -148.5q305 0 430 297h-555v254h895q0 -350 -205 -580q-215 -242 -565 -242q-326 0 -547 226t-221 548z " />
<glyph unicode="H" horiz-adv-x="1339" d="M133 0v1475h295v-590h483v590h295v-1475h-295v616h-483v-616h-295z" />
<glyph unicode="I" horiz-adv-x="567" d="M135 0v1475h297v-1475h-297z" />
<glyph unicode="J" horiz-adv-x="636" d="M45 -27v265q102 0 139 67q29 49 29 164v1006h295v-1024q0 -477 -410 -478h-53z" />
<glyph unicode="K" horiz-adv-x="1271" d="M152 0v1475h294v-697l494 697h326l-539 -734l547 -741h-354l-474 690v-690h-294z" />
<glyph unicode="L" horiz-adv-x="884" d="M135 0v1475h295v-1207h387v-268h-682z" />
<glyph unicode="M" horiz-adv-x="1798" d="M129 0v1475h410l360 -1069l361 1069h409v-1475h-285v823q0 49 6.5 148.5t6.5 148.5h-4l-394 -1120h-200l-393 1120h-5q0 -49 6.5 -148.5t6.5 -148.5v-823h-285z" />
<glyph unicode="N" horiz-adv-x="1437" d="M133 0v1475h275l622 -983l-6 983h281v-1475h-265l-632 983l8 -983h-283z" />
<glyph unicode="O" horiz-adv-x="1667" d="M68 741q0 319 226 540.5t542 221.5q322 0 542.5 -222t220.5 -540q0 -326 -222 -548t-543 -222q-322 0 -544 225.5t-222 544.5zM367 741q0 -201 135 -349t332 -148q207 0 340 149q127 145 126 350q0 197 -136 342.5t-330 145.5q-197 0 -332 -146.5t-135 -343.5z" />
<glyph unicode="P" horiz-adv-x="1167" d="M131 0v1475h444q559 0 560 -455q0 -254 -148 -377q-135 -115 -377 -115h-184v-528h-295zM426 793h152q135 0 194 36q76 47 76 172q0 115 -80 168q-66 43 -188 43h-154v-419z" />
<glyph unicode="Q" horiz-adv-x="1679" d="M66 741q0 319 225 540.5t543 221.5q326 0 545.5 -224t219.5 -546q0 -274 -151 -459q86 -41 209 -41v-251q-252 0 -416 104q-184 -115 -407 -115q-328 0 -548 223t-220 547zM365 741q0 -203 135 -350t334 -147q207 0 338 147.5t131 351.5q0 197 -137.5 342.5t-331.5 145.5 q-197 0 -333 -146.5t-136 -343.5z" />
<glyph unicode="R" horiz-adv-x="1236" d="M131 0v1475h500q244 0 387 -123q150 -131 149 -369q0 -176 -110.5 -304t-282.5 -144l410 -535h-348l-414 600v-600h-291zM422 752h147q158 0 224 36q90 49 90 185q0 131 -97 190q-76 47 -217 47h-147v-458z" />
<glyph unicode="S" horiz-adv-x="1083" d="M55 457h295q0 -92 45 -156q53 -70 142 -70q88 0 141 56.5t53 144.5q0 98 -115 174q-55 37 -200 94q-322 129 -322 394q0 195 139 307q127 102 326 102q201 0 319.5 -113.5t118.5 -312.5h-284q-14 170 -164 170q-166 0 -166 -149q0 -119 182 -199q168 -72 248 -123 q141 -88 188 -192q27 -63 27 -148q0 -217 -134 -341t-353 -124q-223 0 -354.5 131.5t-131.5 354.5z" />
<glyph unicode="T" horiz-adv-x="921" d="M23 1210v265h878v-265h-291v-1210h-297v1210h-290z" />
<glyph unicode="U" horiz-adv-x="1282" d="M123 494v981h295v-936q0 -297 225 -297q129 0 182 90q39 70 39 207v936h295v-943q0 -250 -129 -401q-137 -160 -383 -160q-233 0 -378.5 147t-145.5 376z" />
<glyph unicode="V" horiz-adv-x="1318" d="M-2 1475h307l354 -1125l355 1125h307l-512 -1475h-299z" />
<glyph unicode="W" horiz-adv-x="1853" d="M0 1475h301l260 -1053l254 1053h223l250 -1053l262 1053h301l-419 -1475h-263l-243 1032l-246 -1032h-266z" />
<glyph unicode="X" horiz-adv-x="1363" d="M8 0l504 766l-467 709h338l303 -496l295 496h340l-465 -713l500 -762h-338l-340 549l-336 -549h-334z" />
<glyph unicode="Y" horiz-adv-x="1161" d="M-12 1475h321l271 -652l2 2l270 650h322l-445 -934v-541h-297v541z" />
<glyph unicode="Z" horiz-adv-x="991" d="M37 0v229l575 977h-555v269h889v-248l-567 -959h575v-268h-917z" />
<glyph unicode="[" horiz-adv-x="743" d="M158 -473v1976h495v-221h-227v-1534h227v-221h-495z" />
<glyph unicode="\" horiz-adv-x="878" d="M72 1489h272l506 -1684h-272z" />
<glyph unicode="]" horiz-adv-x="743" d="M90 -252h227v1534h-227v221h496v-1976h-496v221z" />
<glyph unicode="^" horiz-adv-x="1636" d="M256 829l432 648h260l430 -648h-270l-291 439l-291 -439h-270z" />
<glyph unicode="_" horiz-adv-x="1024" d="M-12 -246h1048v-123h-1048v123z" />
<glyph unicode="`" horiz-adv-x="1071" d="M285 1475l4 174l182 -43l264 -260l-106 -99z" />
<glyph unicode="a" horiz-adv-x="1159" d="M-16 0l491 1194h211l490 -1194h-269l-98 258h-459l-100 -258h-266zM424 461h311l-153 440z" />
<glyph unicode="b" horiz-adv-x="993" d="M111 0v1194h362q178 0 281 -70q119 -82 118 -247q0 -160 -139 -236q205 -59 205 -274q0 -195 -133 -287q-115 -80 -324 -80h-370zM350 215h148q197 0 196 150q0 158 -194 157h-150v-307zM350 711h90q188 0 189 141q0 129 -168 129h-111v-270z" />
<glyph unicode="c" horiz-adv-x="1345" d="M57 602q0 264 193 442q186 174 448 175q207 0 366 -105.5t224 -298.5h-272q-111 182 -320 182q-166 0 -277.5 -114.5t-111.5 -278.5q0 -168 112.5 -287.5t278.5 -119.5q209 0 316 176h274q-74 -184 -229.5 -290t-353.5 -106q-199 0 -361 100.5t-238 278.5 q-49 115 -49 246z" />
<glyph unicode="d" d="M96 0v1194h434q281 0 447 -163t166 -435q0 -291 -189 -449q-174 -147 -471 -147h-387zM342 215h174q180 0 279.5 98.5t99.5 278.5q0 184 -102.5 285.5t-286.5 101.5h-164v-764z" />
<glyph unicode="e" horiz-adv-x="874" d="M111 0v1194h665v-211h-418v-272h412v-213h-412v-281h418v-217h-665z" />
<glyph unicode="f" horiz-adv-x="833" d="M109 0v1194h641v-211h-394v-281h389v-213h-389v-489h-247z" />
<glyph unicode="g" horiz-adv-x="1400" d="M55 604q0 268 197 445q190 170 457 170q193 0 350 -99q166 -102 231 -276h-289q-109 154 -301 153q-164 0 -278.5 -114.5t-114.5 -276.5q0 -170 112.5 -289.5t280.5 -119.5q256 0 361 239h-465v205h752q0 -291 -181.5 -477.5t-466.5 -186.5q-268 0 -456.5 182.5 t-188.5 444.5z" />
<glyph unicode="h" horiz-adv-x="1124" d="M113 0v1194h247v-477h406v477h248v-1194h-248v500h-406v-500h-247z" />
<glyph unicode="i" horiz-adv-x="477" d="M113 0v1194h249v-1194h-249z" />
<glyph unicode="j" horiz-adv-x="530" d="M31 -23v216q88 0 119 51q23 39 22 135v815h248v-829q0 -388 -389 -388z" />
<glyph unicode="k" horiz-adv-x="1069" d="M127 0v1194h248v-563l416 563h272l-453 -594l459 -600h-297l-397 559v-559h-248z" />
<glyph unicode="l" horiz-adv-x="743" d="M113 0v1194h247v-977h326v-217h-573z" />
<glyph unicode="m" horiz-adv-x="1511" d="M109 0v1194h344l303 -866l303 866h344v-1194h-240v668q0 41 5.5 119.5t5.5 119.5h-5l-329 -907h-168l-332 907h-2q0 -41 5 -119.5t5 -119.5v-668h-239z" />
<glyph unicode="n" horiz-adv-x="1208" d="M113 0v1194h229l524 -797l-6 797h236v-1194h-222l-532 797l8 -797h-237z" />
<glyph unicode="o" horiz-adv-x="1400" d="M57 600q0 262 195 442q188 176 450 177q193 0 354 -101.5t238 -273.5q49 -115 49 -244q0 -268 -188 -445.5t-455 -177.5q-197 0 -357.5 101.5t-236.5 279.5q-49 113 -49 242zM307 600q0 -166 115 -284.5t278 -118.5q170 0 281 118.5t111 286.5q0 162 -116 278.5 t-276 116.5q-162 0 -277.5 -117.5t-115.5 -279.5z" />
<glyph unicode="p" horiz-adv-x="980" d="M111 0v1194h372q469 0 469 -369q0 -205 -123 -305q-115 -92 -317 -92h-154v-428h-247zM358 641h127q113 0 162 29q66 39 66 141q0 172 -226 172h-129v-342z" />
<glyph unicode="q" horiz-adv-x="1411" d="M55 600q0 264 195 444q186 174 450 175q197 0 358 -101.5t236 -277.5q49 -115 49 -246q0 -221 -126 -371q70 -35 176 -35v-202q-215 0 -351 84q-147 -92 -342 -93q-197 0 -358.5 100.5t-237.5 278.5q-49 113 -49 244zM307 600q0 -166 115 -284.5t278 -118.5 q170 0 282 118.5t112 286.5q0 162 -117 278.5t-277 116.5q-162 0 -277.5 -118.5t-115.5 -278.5z" />
<glyph unicode="r" horiz-adv-x="1038" d="M111 0v1194h419q201 0 322 -96q129 -104 129 -301q0 -145 -92 -248t-238 -117l344 -432h-293l-348 485v-485h-243zM354 608h125q129 0 185 29q78 39 77 151q0 109 -79 156q-66 37 -183 37h-125v-373z" />
<glyph unicode="s" horiz-adv-x="909" d="M47 371h248q0 -76 41 -129.5t115 -53.5q72 0 117.5 45.5t45.5 116.5q0 80 -96 142q-47 31 -168 75q-270 102 -270 320q0 160 119 252q106 80 270 80q166 0 267.5 -91.5t101.5 -255.5h-240q-10 137 -137 138q-139 0 -139 -121q0 -94 153 -160q143 -59 207 -98 q119 -72 160 -158q23 -51 22 -119q0 -178 -113.5 -277.5t-295.5 -99.5q-186 0 -297 105t-111 289z" />
<glyph unicode="t" horiz-adv-x="774" d="M18 981v213h740v-213h-246v-981h-248v981h-246z" />
<glyph unicode="u" horiz-adv-x="1077" d="M102 399v795h248v-758q0 -240 191 -239q106 0 151 71q33 53 33 168v758h248v-762q0 -207 -111 -328q-115 -127 -319 -127q-193 0 -317 118t-124 304z" />
<glyph unicode="v" horiz-adv-x="1112" d="M0 1194h258l297 -909l299 909h258l-430 -1194h-252z" />
<glyph unicode="w" horiz-adv-x="1556" d="M0 1194h252l219 -852l213 852h188l209 -852l222 852h251l-352 -1194h-219l-205 836l-207 -836h-223z" />
<glyph unicode="x" horiz-adv-x="1144" d="M6 0l424 621l-393 573h285l253 -401l248 401h287l-391 -578l420 -616h-285l-285 444l-282 -444h-281z" />
<glyph unicode="y" horiz-adv-x="974" d="M-10 1194h270l227 -526h2l226 526h270l-373 -756v-438h-250v438z" />
<glyph unicode="z" horiz-adv-x="833" d="M31 0v186l483 791h-465v217h746v-201l-478 -776h484v-217h-770z" />
<glyph unicode="{" horiz-adv-x="1071" d="M190 377v258q121 0 175 39q61 45 61 160v335q0 178 92 250q80 66 264 66h140v-201h-41q-94 0 -138 -33q-49 -37 -49 -127v-356q0 -211 -237 -260v-4q238 -45 237 -260v-355q0 -104 66 -139q43 -23 162 -22v-201h-142q-184 0 -264 65q-90 72 -90 250v336q0 115 -64 160 q-53 39 -172 39z" />
<glyph unicode="|" horiz-adv-x="1024" d="M381 -473v1958h268v-1958h-268z" />
<glyph unicode="}" horiz-adv-x="1071" d="M150 -272q119 0 161 22q66 35 66 139v355q0 215 237 260v4q-238 49 -237 260v356q0 90 -46 125t-141 35h-40v201h139q184 0 264 -66q92 -72 92 -250v-335q0 -115 62 -160q53 -39 174 -39v-258q-119 0 -172 -39q-63 -45 -64 -160v-336q0 -178 -90 -250q-80 -66 -264 -65 h-141v201z" />
<glyph unicode="~" horiz-adv-x="1462" d="M156 592q158 162 323 162q84 0 254 -68t254 -68q139 0 285 146l37 -234q-152 -162 -326 -161q-86 0 -249 69.5t-257 69.5q-131 0 -284 -148z" />
<glyph unicode="&#xa4;" horiz-adv-x="1243" d="M41 1249l123 119l190 -190q125 86 271 86q152 0 268 -86l190 190l123 -119l-190 -192q82 -119 82 -271q0 -158 -82 -266l190 -192l-123 -121l-190 190q-121 -86 -266 -86q-154 0 -273 86l-190 -190l-121 121l190 192q-84 113 -83 266q0 154 83 271zM362 788 q0 -109 77 -185.5t186 -76.5t185.5 77t76.5 185q0 109 -77 186t-183 77q-111 0 -188 -77t-77 -186z" />
<glyph unicode="&#xa6;" horiz-adv-x="1024" d="M381 377h268v-850h-268v850zM381 635v850h268v-850h-268z" />
<glyph unicode="&#xa7;" horiz-adv-x="1185" d="M82 625q0 178 184 311q-78 86 -78 211q0 166 125 264q115 92 283 92q279 0 381 -213q33 -70 33 -157h-244q-29 147 -178 147q-150 0 -150 -125q0 -84 164 -162l293 -139q213 -100 213 -352q0 -195 -188 -305q82 -94 81 -222q0 -166 -137 -266q-123 -92 -293 -92 q-174 0 -295 104q-127 111 -126 279h247q25 -158 191 -158t166 129q0 59 -58 105q-31 23 -108 61l-297 144q-209 100 -209 344zM313 657q0 -104 144 -176l313 -157q102 49 102 159q0 111 -143 181l-313 153q-103 -51 -103 -160z" />
<glyph unicode="&#xa9;" horiz-adv-x="1660" d="M76 737q0 311 222 532.5t531 221.5q315 0 535.5 -220t220.5 -534q0 -313 -221 -532q-227 -223 -535 -223q-311 0 -532 224t-221 531zM203 737q0 -262 184 -447.5t442 -185.5q262 0 444.5 186.5t182.5 446.5q0 266 -182 448.5t-445 182.5q-260 0 -443 -186.5t-183 -444.5z M424 743q0 307 240 414q78 35 176 35q139 0 243.5 -82t116.5 -215h-178q-20 147 -191 147q-117 0 -172 -98q-43 -76 -43 -205q0 -121 52 -202q61 -94 174 -95q156 0 188 176h180q-18 -150 -122.5 -238.5t-256.5 -88.5q-190 0 -301 135q-106 124 -106 317z" />
<glyph unicode="&#xaa;" horiz-adv-x="1159" d="M-16 0l491 1194h211l490 -1194h-269l-98 258h-459l-100 -258h-266zM424 461h311l-153 440z" />
<glyph unicode="&#xab;" horiz-adv-x="962" d="M33 625l252 317h223l-244 -317l246 -314h-225zM432 625l252 317h227l-245 -317l245 -314h-227z" />
<glyph unicode="&#xac;" horiz-adv-x="1462" d="M162 659v230h1128v-590h-227v360h-901z" />
<glyph unicode="&#xad;" horiz-adv-x="622" d="M47 485v256h531v-256h-531z" />
<glyph unicode="&#xae;" horiz-adv-x="1660" d="M76 737q0 313 222 533.5t531 220.5q315 0 535.5 -221t220.5 -533q0 -315 -222 -535t-534 -220q-309 0 -531 225t-222 530zM203 737q0 -258 184 -445.5t440 -187.5q264 0 446.5 184.5t182.5 444.5q0 270 -180 452.5t-447 182.5q-262 0 -444 -185.5t-182 -445.5zM518 326 v841h338q227 0 303 -110q31 -45 31 -117q0 -180 -178 -219q35 -12 78 -80q37 -61 45 -106q27 -139 59 -209h-195q-6 6 -26.5 78.5t-20.5 76.5q-4 45 -41 111q-43 76 -80 76h-126v-342h-187zM705 788h129q168 0 167 138q0 121 -165 121h-131v-259z" />
<glyph unicode="&#xb0;" horiz-adv-x="739" d="M80 1161q0 121 85 205t206 84t204.5 -84t83.5 -205q0 -123 -83.5 -207t-204.5 -84q-123 0 -207 85t-84 206zM211 1161q0 -66 47 -114t113 -48q68 0 113.5 47.5t45.5 114.5q0 68 -46 114t-113 46q-68 0 -114 -46t-46 -114z" />
<glyph unicode="&#xb1;" horiz-adv-x="1462" d="M178 14v232h1108v-232h-1108zM178 618v232h438v266h232v-266h438v-232h-438v-266h-232v266h-438z" />
<glyph unicode="&#xb2;" d="M111 0v250q74 76 208 186q168 137 218 182q270 246 270 414q0 88 -55.5 146.5t-143.5 58.5q-172 0 -207 -168q-10 -49 -10 -104h-280v4q0 250 130 392t375 142q203 0 343.5 -132t140.5 -331q0 -238 -226 -467q-59 -61 -178 -155q-127 -100 -178 -152h582v-266h-989z" />
<glyph unicode="&#xb3;" d="M78 477h297q0 -104 53 -167.5t156 -63.5q104 0 169.5 63.5t65.5 167.5q0 141 -57 206t-197 65q-12 0 -155 -29l-117 170l340 319h-467v267h868v-254l-276 -244q199 -51 291 -197q70 -111 69 -280q0 -238 -139 -381q-145 -147 -387 -148q-223 0 -361 123 q-153 133 -153 383z" />
<glyph unicode="&#xb5;" horiz-adv-x="1216" d="M18 -406l160 1502h268l-67 -660q-2 -20 -2 -41q0 -193 184 -192q121 0 189 100q55 80 67 209l57 584h269l-80 -772l-12 -119q0 -55 53 -55l-14 -150q-55 -6 -152 -6q-41 0 -104 12q-18 2 -23.5 8t-11.5 49q-8 53 -8 56q-76 -135 -234 -135q-143 0 -215 114l-55 -504h-269 z" />
<glyph unicode="&#x3bc;" horiz-adv-x="1216" d="M18 -406l160 1502h268l-67 -660q-2 -20 -2 -41q0 -193 184 -192q121 0 189 100q55 80 67 209l57 584h269l-80 -772l-12 -119q0 -55 53 -55l-14 -150q-55 -6 -152 -6q-41 0 -104 12q-18 2 -23.5 8t-11.5 49q-8 53 -8 56q-76 -135 -234 -135q-143 0 -215 114l-55 -504h-269 z" />
<glyph unicode="&#xb6;" horiz-adv-x="1216" d="M27 1110q0 186 127 287q115 90 305 90h633v-162h-113v-1425h-182v1425h-187v-1425h-184v850q-174 4 -283 96q-116 96 -116 264z" />
<glyph unicode="&#xb7;" horiz-adv-x="610" d="M168 479v295h272v-295h-272z" />
<glyph unicode="&#x2219;" horiz-adv-x="610" d="M168 479v295h272v-295h-272z" />
<glyph unicode="&#xb9;" d="M240 0v264h211v965h-170v246h467v-1211h208v-264h-716z" />
<glyph unicode="&#xba;" horiz-adv-x="1400" d="M57 600q0 262 195 442q188 176 450 177q193 0 354 -101.5t238 -273.5q49 -115 49 -244q0 -268 -188 -445.5t-455 -177.5q-197 0 -357.5 101.5t-236.5 279.5q-49 113 -49 242zM307 600q0 -166 115 -284.5t278 -118.5q170 0 281 118.5t111 286.5q0 162 -116 278.5 t-276 116.5q-162 0 -277.5 -117.5t-115.5 -279.5z" />
<glyph unicode="&#xbb;" horiz-adv-x="962" d="M51 311l246 314l-246 317h228l251 -317l-251 -314h-228zM453 311l245 314l-243 317h223l252 -317l-252 -314h-225z" />
<glyph unicode="&#xc0;" horiz-adv-x="1380" d="M346 1854l4 174l182 -43l264 -260l-106 -99zM-18 0l583 1475h252l582 -1475h-320l-116 319h-547l-119 -319h-315zM506 569h368l-182 543z" />
<glyph unicode="&#xc2;" horiz-adv-x="1380" d="M129 1626l432 648h260l430 -648h-270l-291 439l-291 -439h-270zM-18 0l583 1475h252l582 -1475h-320l-116 319h-547l-119 -319h-315zM506 569h368l-182 543z" />
<glyph unicode="&#xc3;" horiz-adv-x="1380" d="M115 1858q158 162 323 162q84 0 254 -68t254 -68q139 0 285 146l37 -234q-152 -162 -326 -161q-86 0 -249 69.5t-257 69.5q-131 0 -284 -148zM-18 0l583 1475h252l582 -1475h-320l-116 319h-547l-119 -319h-315zM506 569h368l-182 543z" />
<glyph unicode="&#xc5;" horiz-adv-x="1380" d="M402 1775q0 121 85 205t206 84t204.5 -84t83.5 -205q0 -123 -83.5 -207t-204.5 -84q-123 0 -207 85t-84 206zM533 1775q0 -66 47 -114t113 -48q68 0 113.5 47.5t45.5 114.5q0 68 -46 114t-113 46q-68 0 -114 -46t-46 -114zM-18 0l583 1475h252l582 -1475h-320l-116 319 h-547l-119 -319h-315zM506 569h368l-182 543z" />
<glyph unicode="&#xc8;" horiz-adv-x="1040" d="M183 1854l4 174l182 -43l264 -260l-106 -99zM131 0v1475h793v-263h-498v-333h492v-265h-492v-346h498v-268h-793z" />
<glyph unicode="&#xca;" horiz-adv-x="1040" d="M-35 1626l432 648h260l430 -648h-270l-291 439l-291 -439h-270zM131 0v1475h793v-263h-498v-333h492v-265h-492v-346h498v-268h-793z" />
<glyph unicode="&#xcc;" horiz-adv-x="567" d="M-59 1854l4 174l182 -43l264 -260l-106 -99zM135 0v1475h297v-1475h-297z" />
<glyph unicode="&#xce;" horiz-adv-x="567" d="M-276 1626l432 648h260l430 -648h-270l-291 439l-291 -439h-270zM135 0v1475h297v-1475h-297z" />
<glyph unicode="&#xd1;" horiz-adv-x="1437" d="M144 1858q158 162 323 162q84 0 254 -68t254 -68q139 0 285 146l37 -234q-152 -162 -326 -161q-86 0 -249 69.5t-257 69.5q-131 0 -284 -148zM133 0v1475h275l622 -983l-6 983h281v-1475h-265l-632 983l8 -983h-283z" />
<glyph unicode="&#xd2;" horiz-adv-x="1667" d="M492 1854l4 174l182 -43l264 -260l-106 -99zM68 741q0 319 226 540.5t542 221.5q322 0 542.5 -222t220.5 -540q0 -326 -222 -548t-543 -222q-322 0 -544 225.5t-222 544.5zM367 741q0 -201 135 -349t332 -148q207 0 340 149q127 145 126 350q0 197 -136 342.5t-330 145.5 q-197 0 -332 -146.5t-135 -343.5z" />
<glyph unicode="&#xd4;" horiz-adv-x="1667" d="M274 1626l432 648h260l430 -648h-270l-291 439l-291 -439h-270zM68 741q0 319 226 540.5t542 221.5q322 0 542.5 -222t220.5 -540q0 -326 -222 -548t-543 -222q-322 0 -544 225.5t-222 544.5zM367 741q0 -201 135 -349t332 -148q207 0 340 149q127 145 126 350 q0 197 -136 342.5t-330 145.5q-197 0 -332 -146.5t-135 -343.5z" />
<glyph unicode="&#xd5;" horiz-adv-x="1667" d="M258 1858q158 162 323 162q84 0 254 -68t254 -68q139 0 285 146l37 -234q-152 -162 -326 -161q-86 0 -249 69.5t-257 69.5q-131 0 -284 -148zM68 741q0 319 226 540.5t542 221.5q322 0 542.5 -222t220.5 -540q0 -326 -222 -548t-543 -222q-322 0 -544 225.5t-222 544.5z M367 741q0 -201 135 -349t332 -148q207 0 340 149q127 145 126 350q0 197 -136 342.5t-330 145.5q-197 0 -332 -146.5t-135 -343.5z" />
<glyph unicode="&#xd9;" horiz-adv-x="1282" d="M297 1854l4 174l182 -43l264 -260l-106 -99zM123 494v981h295v-936q0 -297 225 -297q129 0 182 90q39 70 39 207v936h295v-943q0 -250 -129 -401q-137 -160 -383 -160q-233 0 -378.5 147t-145.5 376z" />
<glyph unicode="&#xdb;" horiz-adv-x="1282" d="M80 1626l432 648h260l430 -648h-270l-291 439l-291 -439h-270zM123 494v981h295v-936q0 -297 225 -297q129 0 182 90q39 70 39 207v936h295v-943q0 -250 -129 -401q-137 -160 -383 -160q-233 0 -378.5 147t-145.5 376z" />
<glyph unicode="&#xe0;" horiz-adv-x="1159" d="M236 1569l4 174l182 -43l264 -260l-106 -99zM-16 0l491 1194h211l490 -1194h-269l-98 258h-459l-100 -258h-266zM424 461h311l-153 440z" />
<glyph unicode="&#xe2;" horiz-adv-x="1159" d="M18 1341l432 648h260l430 -648h-270l-291 439l-291 -439h-270zM-16 0l491 1194h211l490 -1194h-269l-98 258h-459l-100 -258h-266zM424 461h311l-153 440z" />
<glyph unicode="&#xe3;" horiz-adv-x="1159" d="M4 1573q158 162 323 162q84 0 254 -68t254 -68q139 0 285 146l37 -234q-152 -162 -326 -161q-86 0 -249 69.5t-257 69.5q-131 0 -284 -148zM-16 0l491 1194h211l490 -1194h-269l-98 258h-459l-100 -258h-266zM424 461h311l-153 440z" />
<glyph unicode="&#xe5;" horiz-adv-x="1159" d="M291 1632q0 121 85 205t206 84t204.5 -84t83.5 -205q0 -123 -83.5 -207t-204.5 -84q-123 0 -207 85t-84 206zM422 1632q0 -66 47 -114t113 -48q68 0 113.5 47.5t45.5 114.5q0 68 -46 114t-113 46q-68 0 -114 -46t-46 -114zM-16 0l491 1194h211l490 -1194h-269l-98 258 h-459l-100 -258h-266zM424 461h311l-153 440z" />
<glyph unicode="&#xe8;" horiz-adv-x="874" d="M101 1569l4 174l182 -43l264 -260l-106 -99zM111 0v1194h665v-211h-418v-272h412v-213h-412v-281h418v-217h-665z" />
<glyph unicode="&#xea;" horiz-adv-x="874" d="M-117 1341l432 648h260l430 -648h-270l-291 439l-291 -439h-270zM111 0v1194h665v-211h-418v-272h412v-213h-412v-281h418v-217h-665z" />
<glyph unicode="&#xec;" horiz-adv-x="477" d="M-106 1569l4 174l182 -43l264 -260l-106 -99zM113 0v1194h249v-1194h-249z" />
<glyph unicode="&#xee;" horiz-adv-x="477" d="M-324 1341l432 648h260l430 -648h-270l-291 439l-291 -439h-270zM113 0v1194h249v-1194h-249z" />
<glyph unicode="&#xf1;" horiz-adv-x="1208" d="M29 1573q158 162 323 162q84 0 254 -68t254 -68q139 0 285 146l37 -234q-152 -162 -326 -161q-86 0 -249 69.5t-257 69.5q-131 0 -284 -148zM113 0v1194h229l524 -797l-6 797h236v-1194h-222l-532 797l8 -797h-237z" />
<glyph unicode="&#xf2;" horiz-adv-x="1400" d="M359 1569l4 174l182 -43l264 -260l-106 -99zM57 600q0 262 195 442q188 176 450 177q193 0 354 -101.5t238 -273.5q49 -115 49 -244q0 -268 -188 -445.5t-455 -177.5q-197 0 -357.5 101.5t-236.5 279.5q-49 113 -49 242zM307 600q0 -166 115 -284.5t278 -118.5 q170 0 281 118.5t111 286.5q0 162 -116 278.5t-276 116.5q-162 0 -277.5 -117.5t-115.5 -279.5z" />
<glyph unicode="&#xf4;" horiz-adv-x="1400" d="M141 1341l432 648h260l430 -648h-270l-291 439l-291 -439h-270zM57 600q0 262 195 442q188 176 450 177q193 0 354 -101.5t238 -273.5q49 -115 49 -244q0 -268 -188 -445.5t-455 -177.5q-197 0 -357.5 101.5t-236.5 279.5q-49 113 -49 242zM307 600q0 -166 115 -284.5 t278 -118.5q170 0 281 118.5t111 286.5q0 162 -116 278.5t-276 116.5q-162 0 -277.5 -117.5t-115.5 -279.5z" />
<glyph unicode="&#xf5;" horiz-adv-x="1400" d="M127 1573q158 162 323 162q84 0 254 -68t254 -68q139 0 285 146l37 -234q-152 -162 -326 -161q-86 0 -249 69.5t-257 69.5q-131 0 -284 -148zM57 600q0 262 195 442q188 176 450 177q193 0 354 -101.5t238 -273.5q49 -115 49 -244q0 -268 -188 -445.5t-455 -177.5 q-197 0 -357.5 101.5t-236.5 279.5q-49 113 -49 242zM307 600q0 -166 115 -284.5t278 -118.5q170 0 281 118.5t111 286.5q0 162 -116 278.5t-276 116.5q-162 0 -277.5 -117.5t-115.5 -279.5z" />
<glyph unicode="&#xf9;" horiz-adv-x="1077" d="M195 1569l4 174l182 -43l264 -260l-106 -99zM102 399v795h248v-758q0 -240 191 -239q106 0 151 71q33 53 33 168v758h248v-762q0 -207 -111 -328q-115 -127 -319 -127q-193 0 -317 118t-124 304z" />
<glyph unicode="&#xfb;" horiz-adv-x="1077" d="M-23 1341l432 648h260l430 -648h-270l-291 439l-291 -439h-270zM102 399v795h248v-758q0 -240 191 -239q106 0 151 71q33 53 33 168v758h248v-762q0 -207 -111 -328q-115 -127 -319 -127q-193 0 -317 118t-124 304z" />
<glyph unicode="&#x152;" horiz-adv-x="2707" d="M1798 0v1475h793v-263h-498v-333h492v-265h-492v-346h498v-268h-793zM68 741q0 319 226 540.5t542 221.5q322 0 542.5 -222t220.5 -540q0 -326 -222 -548t-543 -222q-322 0 -544 225.5t-222 544.5zM367 741q0 -201 135 -349t332 -148q207 0 340 149q127 145 126 350 q0 197 -136 342.5t-330 145.5q-197 0 -332 -146.5t-135 -343.5z" />
<glyph unicode="&#x153;" horiz-adv-x="2275" d="M1512 0v1194h665v-211h-418v-272h412v-213h-412v-281h418v-217h-665zM57 600q0 262 195 442q188 176 450 177q193 0 354 -101.5t238 -273.5q49 -115 49 -244q0 -268 -188 -445.5t-455 -177.5q-197 0 -357.5 101.5t-236.5 279.5q-49 113 -49 242zM307 600 q0 -166 115 -284.5t278 -118.5q170 0 281 118.5t111 286.5q0 162 -116 278.5t-276 116.5q-162 0 -277.5 -117.5t-115.5 -279.5z" />
<glyph unicode="&#x2c6;" horiz-adv-x="1636" d="M256 829l432 648h260l430 -648h-270l-291 439l-291 -439h-270z" />
<glyph unicode="&#x2dc;" horiz-adv-x="843" d="M-577 354q158 162 323 162q84 0 254 -68t254 -68q139 0 285 146l37 -234q-152 -162 -326 -161q-86 0 -249 69.5t-257 69.5q-131 0 -284 -148z" />
<glyph unicode="&#x2000;" horiz-adv-x="1136" />
<glyph unicode="&#x2001;" horiz-adv-x="2273" />
<glyph unicode="&#x2002;" horiz-adv-x="1136" />
<glyph unicode="&#x2003;" horiz-adv-x="2273" />
<glyph unicode="&#x2004;" horiz-adv-x="757" />
<glyph unicode="&#x2005;" horiz-adv-x="567" />
<glyph unicode="&#x2006;" horiz-adv-x="378" />
<glyph unicode="&#x2007;" horiz-adv-x="378" />
<glyph unicode="&#x2008;" horiz-adv-x="282" />
<glyph unicode="&#x2009;" horiz-adv-x="454" />
<glyph unicode="&#x200a;" horiz-adv-x="124" />
<glyph unicode="&#x2010;" horiz-adv-x="622" d="M47 485v256h531v-256h-531z" />
<glyph unicode="&#x2011;" horiz-adv-x="622" d="M47 485v256h531v-256h-531z" />
<glyph unicode="&#x2012;" horiz-adv-x="622" d="M47 485v256h531v-256h-531z" />
<glyph unicode="&#x2013;" horiz-adv-x="1024" d="M-12 479v238h1048v-238h-1048z" />
<glyph unicode="&#x2014;" horiz-adv-x="2048" d="M-12 479v238h2072v-238h-2072z" />
<glyph unicode="&#x2018;" horiz-adv-x="552" d="M139 911v320q0 195 156 239q39 4 119 19v-156q-76 -6 -93.5 -29.5t-17.5 -103.5h111v-289h-275z" />
<glyph unicode="&#x2019;" horiz-adv-x="552" d="M139 897v154q104 6 111 67q2 25 2 64h-113v293h275v-312q0 -207 -158 -250q-39 -4 -117 -16z" />
<glyph unicode="&#x201a;" horiz-adv-x="552" d="M139 0v289h273v-324q0 -125 -74 -189.5t-199 -64.5v154q72 0 94 33q18 27 19 102h-113z" />
<glyph unicode="&#x201c;" horiz-adv-x="962" d="M137 911v320q0 193 156 239q39 4 119 19v-156q-76 -6 -93.5 -29.5t-17.5 -103.5h111v-289h-275zM551 911v320q0 193 156 239q39 4 118 19v-156q-74 -6 -93 -30.5t-19 -102.5h112v-289h-274z" />
<glyph unicode="&#x201d;" horiz-adv-x="962" d="M137 897v154q104 6 111 67q2 25 2 64h-113v293h275v-312q0 -207 -158 -250q-39 -4 -117 -16zM551 897v154q76 4 98 30q14 20 15 101h-113v293h274v-312q0 -205 -157 -250q-39 -4 -117 -16z" />
<glyph unicode="&#x201e;" horiz-adv-x="962" d="M137 0v289h273v-324q0 -125 -74 -189.5t-199 -64.5v154q72 0 94 33q18 27 19 102h-113zM551 0v289h272v-324q0 -125 -73.5 -189.5t-198.5 -64.5v154q72 0 94 33q18 27 19 102h-113z" />
<glyph unicode="&#x2022;" horiz-adv-x="1347" d="M371 762q0 125 89 213t214 88q127 0 215 -88t88 -213q0 -127 -89 -216t-214 -89t-214 91t-89 214z" />
<glyph unicode="&#x2026;" horiz-adv-x="2033" d="M203 0v295h272v-295h-272zM881 0v295h272v-295h-272zM1556 0v295h273v-295h-273z" />
<glyph unicode="&#x202f;" horiz-adv-x="454" />
<glyph unicode="&#x2039;" horiz-adv-x="610" d="M76 625l252 317h223l-244 -317l246 -314h-225z" />
<glyph unicode="&#x203a;" horiz-adv-x="610" d="M57 311l246 314l-244 317h224l252 -317l-252 -314h-226z" />
<glyph unicode="&#x205f;" horiz-adv-x="567" />
<glyph unicode="&#x2122;" horiz-adv-x="1851" d="M145 1329v148h533v-148h-180v-567h-170v567h-183zM797 762v715h235l164 -476l158 476h231v-715h-164v522l-170 -522h-112l-176 522v-522h-166z" />
<glyph unicode="&#xe000;" horiz-adv-x="1195" d="M0 1195h1195v-1195h-1195v1195z" />
<glyph unicode="&#xfb01;" horiz-adv-x="1310" d="M947 0v1194h249v-1194h-249zM109 0v1194h641v-211h-394v-281h389v-213h-389v-489h-247z" />
<glyph unicode="&#xfb02;" horiz-adv-x="1576" d="M947 0v1194h247v-977h326v-217h-573zM109 0v1194h641v-211h-394v-281h389v-213h-389v-489h-247z" />
<glyph unicode="&#xfb03;" horiz-adv-x="2144" d="M1780 0v1194h249v-1194h-249zM943 0v1194h641v-211h-394v-281h389v-213h-389v-489h-247zM109 0v1194h641v-211h-394v-281h389v-213h-389v-489h-247z" />
<glyph unicode="&#xfb04;" horiz-adv-x="2410" d="M1780 0v1194h247v-977h326v-217h-573zM943 0v1194h641v-211h-394v-281h389v-213h-389v-489h-247zM109 0v1194h641v-211h-394v-281h389v-213h-389v-489h-247z" />
</font>
</defs>
</svg>
